<?xml version="1.0" standalone="no"?>
 <!DOCTYPE svg PUBLIC "-//W3C//DTD SVG 1.1//EN" 
 "http://www.w3.org/Graphics/SVG/1.1/DTD/svg11.dtd"> 
<svg xmlns="http://www.w3.org/2000/svg" version="1.1" 
    width="41.9989cm" height="29.7002cm" viewBox="0 0 165350 116930 ">
<title>SVG Picture created as _autosave-PlacaNuevaAirsoftHOY-F.SilkS.svg date 2016/10/26 21:32:09 </title>
  <desc>Picture generated by PCBNEW </desc>
<g style="fill:#000000; fill-opacity:1;stroke:#000000; stroke-opacity:1;
stroke-linecap:round; stroke-linejoin:round; "
 transform="translate(0 0) scale(1 1)">
</g>
<g style="fill:#000000; fill-opacity:0.0; 
stroke:#000000; stroke-width:-0.000393701; stroke-opacity:1; 
stroke-linecap:round; stroke-linejoin:round;">
</g>
<g style="fill:#000000; fill-opacity:1.0; 
stroke:#000000; stroke-width:196.85; stroke-opacity:1; 
stroke-linecap:round; stroke-linejoin:round;">
<rect x="56761.8" y="22722.6" width="32447.4" height="28269.1" rx="0" />
</g>
<g style="fill:#FFFFFF; fill-opacity:1.0; 
stroke:#FFFFFF; stroke-width:196.85; stroke-opacity:1; 
stroke-linecap:round; stroke-linejoin:round;">
</g>
<g style="fill:#FFFFFF; fill-opacity:0.0; 
stroke:#FFFFFF; stroke-width:196.85; stroke-opacity:1; 
stroke-linecap:round; stroke-linejoin:round;">
</g>
<g style="fill:#FFFFFF; fill-opacity:0.0; 
stroke:#FFFFFF; stroke-width:68.8976; stroke-opacity:1; 
stroke-linecap:round; stroke-linejoin:round;">
<path d="M71490 45424
L71464 45411
L71451 45398
L71438 45372
L71438 45293
L71451 45267
L71464 45254
L71490 45240
L71530 45240
L71556 45254
L71569 45267
L71582 45293
L71582 45372
L71569 45398
L71556 45411
L71530 45424
L71490 45424
" />
<path d="M71687 45411
L71714 45424
L71766 45424
L71792 45411
L71805 45385
L71805 45372
L71792 45345
L71766 45332
L71727 45332
L71700 45319
L71687 45293
L71687 45280
L71700 45254
L71727 45240
L71766 45240
L71792 45254
" />
<path d="M72042 45411
L72015 45424
L71963 45424
L71937 45411
L71924 45398
L71910 45372
L71910 45293
L71924 45267
L71937 45254
L71963 45240
L72015 45240
L72042 45254
" />
<path d="M72278 45424
L72278 45280
L72265 45254
L72238 45240
L72186 45240
L72160 45254
" />
<path d="M72278 45411
L72252 45424
L72186 45424
L72160 45411
L72147 45385
L72147 45359
L72160 45332
L72186 45319
L72252 45319
L72278 45306
" />
<path d="M72409 45424
L72409 45240
" />
<path d="M72409 45293
L72422 45267
L72435 45254
L72462 45240
L72488 45240
" />
<path d="M72580 45398
L72593 45411
L72580 45424
L72567 45411
L72580 45398
L72580 45424
" />
<path d="M72672 45240
L72777 45240
" />
<path d="M72711 45424
L72711 45188
L72724 45162
L72750 45149
L72777 45149
" />
<path d="M72973 45411
L72947 45424
L72895 45424
L72868 45411
L72855 45385
L72855 45280
L72868 45254
L72895 45240
L72947 45240
L72973 45254
L72987 45280
L72987 45306
L72855 45332
" />
<path d="M73105 45424
L73105 45240
" />
<path d="M73105 45293
L73118 45267
L73131 45254
L73157 45240
L73183 45240
" />
<path d="M73275 45398
L73288 45411
L73275 45424
L73262 45411
L73275 45398
L73275 45424
" />
<path d="M73406 45424
L73406 45240
" />
<path d="M73406 45293
L73420 45267
L73433 45254
L73459 45240
L73485 45240
" />
<path d="M73616 45424
L73590 45411
L73577 45398
L73564 45372
L73564 45293
L73577 45267
L73590 45254
L73616 45240
L73656 45240
L73682 45254
L73695 45267
L73708 45293
L73708 45372
L73695 45398
L73682 45411
L73656 45424
L73616 45424
" />
<path d="M73945 45424
L73945 45149
" />
<path d="M73945 45411
L73918 45424
L73866 45424
L73840 45411
L73826 45398
L73813 45372
L73813 45293
L73826 45267
L73840 45254
L73866 45240
L73918 45240
L73945 45254
" />
<path d="M74050 45240
L74194 45240
L74050 45424
L74194 45424
" />
<path d="M74469 45293
L74456 45280
L74430 45267
L74404 45267
L74378 45280
L74364 45293
L74351 45319
L74351 45345
L74364 45372
L74378 45385
L74404 45398
L74430 45398
L74456 45385
L74469 45372
" />
<path d="M74469 45267
L74469 45372
L74483 45385
L74496 45385
L74522 45372
L74535 45345
L74535 45280
L74509 45240
L74469 45214
L74417 45201
L74364 45214
L74325 45240
L74299 45280
L74286 45332
L74299 45385
L74325 45424
L74364 45450
L74417 45464
L74469 45450
L74509 45424
" />
<path d="M74771 45240
L74771 45464
L74758 45490
L74745 45503
L74719 45516
L74679 45516
L74653 45503
" />
<path d="M74771 45411
L74745 45424
L74693 45424
L74666 45411
L74653 45398
L74640 45372
L74640 45293
L74653 45267
L74666 45254
L74693 45240
L74745 45240
L74771 45254
" />
<path d="M74903 45424
L74903 45240
" />
<path d="M74903 45267
L74916 45254
L74942 45240
L74981 45240
L75008 45254
L75021 45280
L75021 45424
" />
<path d="M75021 45280
L75034 45254
L75060 45240
L75099 45240
L75126 45254
L75139 45280
L75139 45424
" />
<path d="M75388 45424
L75388 45280
L75375 45254
L75349 45240
L75296 45240
L75270 45254
" />
<path d="M75388 45411
L75362 45424
L75296 45424
L75270 45411
L75257 45385
L75257 45359
L75270 45332
L75296 45319
L75362 45319
L75388 45306
" />
<path d="M75519 45424
L75519 45240
" />
<path d="M75519 45149
L75506 45162
L75519 45175
L75532 45162
L75519 45149
L75519 45175
" />
<path d="M75690 45424
L75664 45411
L75651 45385
L75651 45149
" />
<path d="M75795 45398
L75808 45411
L75795 45424
L75782 45411
L75795 45398
L75795 45424
" />
<path d="M76044 45411
L76018 45424
L75966 45424
L75939 45411
L75926 45398
L75913 45372
L75913 45293
L75926 45267
L75939 45254
L75966 45240
L76018 45240
L76044 45254
" />
<path d="M76202 45424
L76175 45411
L76162 45398
L76149 45372
L76149 45293
L76162 45267
L76175 45254
L76202 45240
L76241 45240
L76267 45254
L76280 45267
L76294 45293
L76294 45372
L76280 45398
L76267 45411
L76241 45424
L76202 45424
" />
<path d="M76412 45424
L76412 45240
" />
<path d="M76412 45267
L76425 45254
L76451 45240
L76490 45240
L76517 45254
L76530 45280
L76530 45424
" />
<path d="M76530 45280
L76543 45254
L76569 45240
L76609 45240
L76635 45254
L76648 45280
L76648 45424
" />
<path d="M71507 44599
L71559 44599
L71585 44612
L71612 44638
L71625 44690
L71625 44782
L71612 44835
L71585 44861
L71559 44874
L71507 44874
L71480 44861
L71454 44835
L71441 44782
L71441 44690
L71454 44638
L71480 44612
L71507 44599
" />
<path d="M71559 44494
L71520 44533
" />
<path d="M71730 44861
L71756 44874
L71809 44874
L71835 44861
L71848 44835
L71848 44822
L71835 44795
L71809 44782
L71769 44782
L71743 44769
L71730 44743
L71730 44730
L71743 44704
L71769 44690
L71809 44690
L71835 44704
" />
<path d="M72084 44861
L72058 44874
L72005 44874
L71979 44861
L71966 44848
L71953 44822
L71953 44743
L71966 44717
L71979 44704
L72005 44690
L72058 44690
L72084 44704
" />
<path d="M72320 44874
L72320 44730
L72307 44704
L72281 44690
L72229 44690
L72202 44704
" />
<path d="M72320 44861
L72294 44874
L72229 44874
L72202 44861
L72189 44835
L72189 44809
L72202 44782
L72229 44769
L72294 44769
L72320 44756
" />
<path d="M72452 44874
L72452 44690
" />
<path d="M72452 44743
L72465 44717
L72478 44704
L72504 44690
L72530 44690
" />
<path d="M72924 44730
L72832 44730
" />
<path d="M72832 44874
L72832 44599
L72963 44599
" />
<path d="M73173 44861
L73147 44874
L73095 44874
L73068 44861
L73055 44835
L73055 44730
L73068 44704
L73095 44690
L73147 44690
L73173 44704
L73187 44730
L73187 44756
L73055 44782
" />
<path d="M73305 44874
L73305 44690
" />
<path d="M73305 44743
L73318 44717
L73331 44704
L73357 44690
L73383 44690
" />
<path d="M73475 44690
L73475 44874
" />
<path d="M73475 44717
L73488 44704
L73515 44690
L73554 44690
L73580 44704
L73593 44730
L73593 44874
" />
<path d="M73843 44874
L73843 44730
L73830 44704
L73803 44690
L73751 44690
L73725 44704
" />
<path d="M73843 44861
L73816 44874
L73751 44874
L73725 44861
L73711 44835
L73711 44809
L73725 44782
L73751 44769
L73816 44769
L73843 44756
" />
<path d="M73803 44585
L73764 44625
" />
<path d="M73974 44690
L73974 44874
" />
<path d="M73974 44717
L73987 44704
L74013 44690
L74053 44690
L74079 44704
L74092 44730
L74092 44874
" />
<path d="M74341 44874
L74341 44599
" />
<path d="M74341 44861
L74315 44874
L74263 44874
L74236 44861
L74223 44848
L74210 44822
L74210 44743
L74223 44717
L74236 44704
L74263 44690
L74315 44690
L74341 44704
" />
<path d="M74578 44861
L74551 44874
L74499 44874
L74473 44861
L74459 44835
L74459 44730
L74473 44704
L74499 44690
L74551 44690
L74578 44704
L74591 44730
L74591 44756
L74459 44782
" />
<path d="M74683 44690
L74827 44690
L74683 44874
L74827 44874
" />
<path d="M75299 44874
L75208 44743
" />
<path d="M75142 44874
L75142 44599
L75247 44599
L75273 44612
L75286 44625
L75299 44651
L75299 44690
L75286 44717
L75273 44730
L75247 44743
L75142 44743
" />
<path d="M75457 44874
L75431 44861
L75417 44848
L75404 44822
L75404 44743
L75417 44717
L75431 44704
L75457 44690
L75496 44690
L75522 44704
L75536 44717
L75549 44743
L75549 44822
L75536 44848
L75522 44861
L75496 44874
L75457 44874
" />
<path d="M75785 44874
L75785 44599
" />
<path d="M75785 44861
L75759 44874
L75706 44874
L75680 44861
L75667 44848
L75654 44822
L75654 44743
L75667 44717
L75680 44704
L75706 44690
L75759 44690
L75785 44704
" />
<path d="M75916 44874
L75916 44690
" />
<path d="M75916 44743
L75929 44717
L75942 44704
L75969 44690
L75995 44690
" />
<path d="M76087 44874
L76087 44690
" />
<path d="M76113 44585
L76074 44625
" />
<path d="M76336 44690
L76336 44914
L76323 44940
L76310 44953
L76284 44966
L76244 44966
L76218 44953
" />
<path d="M76336 44861
L76310 44874
L76257 44874
L76231 44861
L76218 44848
L76205 44822
L76205 44743
L76218 44717
L76231 44704
L76257 44690
L76310 44690
L76336 44704
" />
<path d="M76585 44690
L76585 44874
" />
<path d="M76467 44690
L76467 44835
L76480 44861
L76507 44874
L76546 44874
L76572 44861
L76585 44848
" />
<path d="M76822 44861
L76795 44874
L76743 44874
L76717 44861
L76704 44835
L76704 44730
L76717 44704
L76743 44690
L76795 44690
L76822 44704
L76835 44730
L76835 44756
L76704 44782
" />
<path d="M76927 44690
L77071 44690
L76927 44874
L77071 44874
" />
</g>
<g style="fill:#FFFFFF; fill-opacity:0.0; 
stroke:#FFFFFF; stroke-width:39.3701; stroke-opacity:1; 
stroke-linecap:round; stroke-linejoin:round;">
<path d="M67849 36628
L67550 36628
" />
<path d="M70699 36628
L70400 36628
" />
<path d="M59999 36628
L59700 36628
" />
<path d="M60049 31578
L59750 31578
" />
<path d="M60149 27778
L59850 27778
" />
<path d="M58750 32050
L58750 32100
" />
</g>
<g style="fill:#FFFFFF; fill-opacity:0.0; 
stroke:#FFFFFF; stroke-width:60; stroke-opacity:1; 
stroke-linecap:round; stroke-linejoin:round;">
<path d="M85045 47596
L85045 47465
" />
<path d="M85124 47623
L84849 47531
L85124 47439
" />
<path d="M84849 47216
L84849 47347
L84980 47360
L84967 47347
L84954 47321
L84954 47255
L84967 47229
L84980 47216
L85006 47203
L85072 47203
L85098 47216
L85111 47229
L85124 47255
L85124 47321
L85111 47347
L85098 47360
" />
<path d="M84020 47521
L84020 47390
" />
<path d="M84099 47548
L83824 47456
L84099 47364
" />
<path d="M83915 47154
L84099 47154
" />
<path d="M83810 47220
L84007 47285
L84007 47115
" />
<path d="M83045 47521
L83045 47390
" />
<path d="M83124 47548
L82849 47456
L83124 47364
" />
<path d="M82849 47298
L82849 47128
L82954 47220
L82954 47180
L82967 47154
L82980 47141
L83006 47128
L83072 47128
L83098 47141
L83111 47154
L83124 47180
L83124 47259
L83111 47285
L83098 47298
" />
<path d="M82045 47521
L82045 47390
" />
<path d="M82124 47548
L81849 47456
L82124 47364
" />
<path d="M81875 47285
L81862 47272
L81849 47246
L81849 47180
L81862 47154
L81875 47141
L81901 47128
L81927 47128
L81967 47141
L82124 47298
L82124 47128
" />
<path d="M81045 47496
L81045 47365
" />
<path d="M81124 47523
L80849 47431
L81124 47339
" />
<path d="M81124 47103
L81124 47260
" />
<path d="M81124 47181
L80849 47181
L80888 47208
L80914 47234
L80927 47260
" />
<path d="M80045 47496
L80045 47365
" />
<path d="M80124 47523
L79849 47431
L80124 47339
" />
<path d="M79849 47195
L79849 47168
L79862 47142
L79875 47129
L79901 47116
L79954 47103
L80019 47103
L80072 47116
L80098 47129
L80111 47142
L80124 47168
L80124 47195
L80111 47221
L80098 47234
L80072 47247
L80019 47260
L79954 47260
L79901 47247
L79875 47234
L79862 47221
L79849 47195
" />
<path d="M73124 47600
L72993 47692
" />
<path d="M73124 47758
L72849 47758
L72849 47653
L72862 47627
L72875 47614
L72901 47600
L72940 47600
L72967 47614
L72980 47627
L72993 47653
L72993 47758
" />
<path d="M73111 47495
L73124 47456
L73124 47390
L73111 47364
L73098 47351
L73072 47338
L73045 47338
L73019 47351
L73006 47364
L72993 47390
L72980 47443
L72967 47469
L72954 47482
L72927 47495
L72901 47495
L72875 47482
L72862 47469
L72849 47443
L72849 47377
L72862 47338
" />
<path d="M72849 47259
L72849 47102
" />
<path d="M73124 47180
L72849 47180
" />
<path d="M73849 47688
L73849 47518
L73954 47609
L73954 47570
L73967 47544
L73980 47531
L74006 47518
L74072 47518
L74098 47531
L74111 47544
L74124 47570
L74124 47649
L74111 47675
L74098 47688
" />
<path d="M74098 47399
L74111 47386
L74124 47399
L74111 47413
L74098 47399
L74124 47399
" />
<path d="M73849 47295
L73849 47124
L73954 47216
L73954 47176
L73967 47150
L73980 47137
L74006 47124
L74072 47124
L74098 47137
L74111 47150
L74124 47176
L74124 47255
L74111 47281
L74098 47295
" />
<path d="M74849 47402
L74849 47533
L74980 47546
L74967 47533
L74954 47507
L74954 47441
L74967 47415
L74980 47402
L75006 47389
L75072 47389
L75098 47402
L75111 47415
L75124 47441
L75124 47507
L75111 47533
L75098 47546
" />
<path d="M74849 47310
L75124 47218
L74849 47126
" />
<path d="M76290 47137
L76263 47124
L76224 47124
L76185 47137
L76158 47163
L76145 47189
L76132 47242
L76132 47281
L76145 47334
L76158 47360
L76185 47386
L76224 47399
L76250 47399
L76290 47386
L76303 47373
L76303 47281
L76250 47281
" />
<path d="M76421 47399
L76421 47124
L76578 47399
L76578 47124
" />
<path d="M76709 47399
L76709 47124
L76775 47124
L76814 47137
L76841 47163
L76854 47189
L76867 47242
L76867 47281
L76854 47334
L76841 47360
L76814 47386
L76775 47399
L76709 47399
" />
<path d="M77849 47776
L78124 47684
L77849 47593
" />
<path d="M78124 47501
L77849 47501
" />
<path d="M78124 47370
L77849 47370
L78124 47212
L77849 47212
" />
<path d="M75147 33124
L75200 33124
L75226 33111
L75239 33098
L75265 33059
L75278 33006
L75278 32901
L75265 32875
L75252 32862
L75226 32849
L75173 32849
L75147 32862
L75134 32875
L75121 32901
L75121 32967
L75134 32993
L75147 33006
L75173 33019
L75226 33019
L75252 33006
L75265 32993
L75278 32967
" />
<path d="M76173 32967
L76147 32954
L76134 32940
L76121 32914
L76121 32901
L76134 32875
L76147 32862
L76173 32849
L76226 32849
L76252 32862
L76265 32875
L76278 32901
L76278 32914
L76265 32940
L76252 32954
L76226 32967
L76173 32967
L76147 32980
L76134 32993
L76121 33019
L76121 33072
L76134 33098
L76147 33111
L76173 33124
L76226 33124
L76252 33111
L76265 33098
L76278 33072
L76278 33019
L76265 32993
L76252 32980
L76226 32967
" />
<path d="M77108 32849
L77291 32849
L77173 33124
" />
<path d="M78252 32849
L78200 32849
L78173 32862
L78160 32875
L78134 32914
L78121 32967
L78121 33072
L78134 33098
L78147 33111
L78173 33124
L78226 33124
L78252 33111
L78265 33098
L78278 33072
L78278 33006
L78265 32980
L78252 32967
L78226 32954
L78173 32954
L78147 32967
L78134 32980
L78121 33006
" />
<path d="M79265 32849
L79134 32849
L79121 32980
L79134 32967
L79160 32954
L79226 32954
L79252 32967
L79265 32980
L79278 33006
L79278 33072
L79265 33098
L79252 33111
L79226 33124
L79160 33124
L79134 33111
L79121 33098
" />
<path d="M80252 32940
L80252 33124
" />
<path d="M80186 32835
L80121 33032
L80291 33032
" />
<path d="M81108 32849
L81278 32849
L81186 32954
L81226 32954
L81252 32967
L81265 32980
L81278 33006
L81278 33072
L81265 33098
L81252 33111
L81226 33124
L81147 33124
L81121 33111
L81108 33098
" />
<path d="M82121 32875
L82134 32862
L82160 32849
L82226 32849
L82252 32862
L82265 32875
L82278 32901
L82278 32927
L82265 32967
L82108 33124
L82278 33124
" />
<path d="M83699 39946
L83974 39854
L83699 39763
" />
<path d="M83699 39710
L83699 39553
" />
<path d="M83974 39631
L83699 39631
" />
<path d="M83974 38953
L83699 38953
L83699 38887
L83712 38848
L83738 38822
L83764 38809
L83817 38795
L83856 38795
L83909 38809
L83935 38822
L83961 38848
L83974 38887
L83974 38953
" />
<path d="M83699 38704
L83699 38533
L83804 38625
L83804 38585
L83817 38559
L83830 38546
L83856 38533
L83922 38533
L83948 38546
L83961 38559
L83974 38585
L83974 38664
L83961 38690
L83948 38704
" />
<path d="M83974 37953
L83699 37953
L83699 37887
L83712 37848
L83738 37822
L83764 37809
L83817 37795
L83856 37795
L83909 37809
L83935 37822
L83961 37848
L83974 37887
L83974 37953
" />
<path d="M83725 37690
L83712 37677
L83699 37651
L83699 37585
L83712 37559
L83725 37546
L83751 37533
L83777 37533
L83817 37546
L83974 37704
L83974 37533
" />
<path d="M83974 36953
L83699 36953
L83699 36887
L83712 36848
L83738 36822
L83764 36809
L83817 36795
L83856 36795
L83909 36809
L83935 36822
L83961 36848
L83974 36887
L83974 36953
" />
<path d="M83974 36533
L83974 36690
" />
<path d="M83974 36612
L83699 36612
L83738 36638
L83764 36664
L83777 36690
" />
<path d="M83974 35953
L83699 35953
L83699 35887
L83712 35848
L83738 35822
L83764 35809
L83817 35795
L83856 35795
L83909 35809
L83935 35822
L83961 35848
L83974 35887
L83974 35953
" />
<path d="M83699 35625
L83699 35599
L83712 35572
L83725 35559
L83751 35546
L83804 35533
L83869 35533
L83922 35546
L83948 35559
L83961 35572
L83974 35599
L83974 35625
L83961 35651
L83948 35664
L83922 35677
L83869 35690
L83804 35690
L83751 35677
L83725 35664
L83712 35651
L83699 35625
" />
<path d="M83737 33934
L83724 33961
L83724 34000
L83737 34039
L83763 34066
L83789 34079
L83842 34092
L83881 34092
L83934 34079
L83960 34066
L83986 34039
L83999 34000
L83999 33974
L83986 33934
L83973 33921
L83881 33921
L83881 33974
" />
<path d="M83999 33803
L83724 33803
L83999 33646
L83724 33646
" />
<path d="M83999 33515
L83724 33515
L83724 33449
L83737 33410
L83763 33383
L83789 33370
L83842 33357
L83881 33357
L83934 33370
L83960 33383
L83986 33410
L83999 33449
L83999 33515
" />
<path d="M83699 35117
L83974 35025
L83699 34933
" />
<path d="M83948 34684
L83961 34697
L83974 34736
L83974 34763
L83961 34802
L83935 34828
L83909 34841
L83856 34854
L83817 34854
L83764 34841
L83738 34828
L83712 34802
L83699 34763
L83699 34736
L83712 34697
L83725 34684
" />
<path d="M83948 34408
L83961 34421
L83974 34461
L83974 34487
L83961 34526
L83935 34553
L83909 34566
L83856 34579
L83817 34579
L83764 34566
L83738 34553
L83712 34526
L83699 34487
L83699 34461
L83712 34421
L83725 34408
" />
<path d="M83974 29183
L83843 29275
" />
<path d="M83974 29341
L83699 29341
L83699 29236
L83712 29209
L83725 29196
L83751 29183
L83790 29183
L83817 29196
L83830 29209
L83843 29236
L83843 29341
" />
<path d="M83699 29091
L83974 28908
" />
<path d="M83699 28908
L83974 29091
" />
<path d="M83974 28803
L83699 28803
L83699 28737
L83712 28698
L83738 28671
L83764 28658
L83817 28645
L83856 28645
L83909 28658
L83935 28671
L83961 28698
L83974 28737
L83974 28803
" />
<path d="M83699 30347
L83699 30190
" />
<path d="M83974 30269
L83699 30269
" />
<path d="M83699 30124
L83974 29940
" />
<path d="M83699 29940
L83974 30124
" />
<path d="M83974 29835
L83699 29835
L83699 29770
L83712 29730
L83738 29704
L83764 29691
L83817 29678
L83856 29678
L83909 29691
L83935 29704
L83961 29730
L83974 29770
L83974 29835
" />
<path d="M83712 31209
L83699 31236
L83699 31275
L83712 31314
L83738 31341
L83764 31354
L83817 31367
L83856 31367
L83909 31354
L83935 31341
L83961 31314
L83974 31275
L83974 31249
L83961 31209
L83948 31196
L83856 31196
L83856 31249
" />
<path d="M83974 31078
L83699 31078
L83974 30921
L83699 30921
" />
<path d="M83974 30790
L83699 30790
L83699 30724
L83712 30685
L83738 30658
L83764 30645
L83817 30632
L83856 30632
L83909 30645
L83935 30658
L83961 30685
L83974 30724
L83974 30790
" />
<path d="M83699 32367
L83974 32275
L83699 32183
" />
<path d="M83948 31934
L83961 31947
L83974 31986
L83974 32013
L83961 32052
L83935 32078
L83909 32091
L83856 32104
L83817 32104
L83764 32091
L83738 32078
L83712 32052
L83699 32013
L83699 31986
L83712 31947
L83725 31934
" />
<path d="M83948 31658
L83961 31671
L83974 31711
L83974 31737
L83961 31776
L83935 31803
L83909 31816
L83856 31829
L83817 31829
L83764 31816
L83738 31803
L83712 31776
L83699 31737
L83699 31711
L83712 31671
L83725 31658
" />
<path d="M85124 26320
L84993 26412
" />
<path d="M85124 26478
L84849 26478
L84849 26373
L84862 26347
L84875 26334
L84901 26320
L84940 26320
L84967 26334
L84980 26347
L84993 26373
L84993 26478
" />
<path d="M84849 26229
L85124 26045
" />
<path d="M84849 26045
L85124 26229
" />
<path d="M83862 26484
L83862 26327
" />
<path d="M84137 26406
L83862 26406
" />
<path d="M83862 26261
L84137 26078
" />
<path d="M83862 26078
L84137 26261
" />
<path d="M82875 26478
L82862 26465
L82849 26439
L82849 26373
L82862 26347
L82875 26334
L82901 26321
L82927 26321
L82967 26334
L83124 26491
L83124 26321
" />
<path d="M81849 26491
L81849 26321
L81954 26413
L81954 26373
L81967 26347
L81980 26334
L82006 26321
L82072 26321
L82098 26334
L82111 26347
L82124 26373
L82124 26452
L82111 26478
L82098 26491
" />
<path d="M80904 26347
L81087 26347
" />
<path d="M80799 26413
L80996 26478
L80996 26308
" />
<path d="M79849 26334
L79849 26465
L79980 26478
L79967 26465
L79954 26439
L79954 26373
L79967 26347
L79980 26334
L80006 26321
L80072 26321
L80098 26334
L80111 26347
L80124 26373
L80124 26439
L80111 26465
L80098 26478
" />
<path d="M78849 26347
L78849 26400
L78862 26426
L78875 26439
L78914 26465
L78967 26478
L79072 26478
L79098 26465
L79111 26452
L79124 26426
L79124 26373
L79111 26347
L79098 26334
L79072 26321
L79006 26321
L78980 26334
L78967 26347
L78954 26373
L78954 26426
L78967 26452
L78980 26465
L79006 26478
" />
<path d="M77849 26341
L77849 26158
L78124 26276
" />
<path d="M75967 26426
L75954 26452
L75940 26465
L75914 26478
L75901 26478
L75875 26465
L75862 26452
L75849 26426
L75849 26373
L75862 26347
L75875 26334
L75901 26321
L75914 26321
L75940 26334
L75954 26347
L75967 26373
L75967 26426
L75980 26452
L75993 26465
L76019 26478
L76072 26478
L76098 26465
L76111 26452
L76124 26426
L76124 26373
L76111 26347
L76098 26334
L76072 26321
L76019 26321
L75993 26334
L75980 26347
L75967 26373
" />
<path d="M75124 26452
L75124 26400
L75111 26373
L75098 26360
L75059 26334
L75006 26321
L74901 26321
L74875 26334
L74862 26347
L74849 26373
L74849 26426
L74862 26452
L74875 26465
L74901 26478
L74967 26478
L74993 26465
L75006 26452
L75019 26426
L75019 26373
L75006 26347
L74993 26334
L74967 26321
" />
<path d="M74124 26327
L74124 26484
" />
<path d="M74124 26406
L73849 26406
L73888 26432
L73914 26458
L73927 26484
" />
<path d="M73849 26156
L73849 26130
L73862 26104
L73875 26091
L73901 26078
L73954 26065
L74019 26065
L74072 26078
L74098 26091
L74111 26104
L74124 26130
L74124 26156
L74111 26183
L74098 26196
L74072 26209
L74019 26222
L73954 26222
L73901 26209
L73875 26196
L73862 26183
L73849 26156
" />
<path d="M73124 26327
L73124 26484
" />
<path d="M73124 26406
L72849 26406
L72888 26432
L72914 26458
L72927 26484
" />
<path d="M73124 26065
L73124 26222
" />
<path d="M73124 26143
L72849 26143
L72888 26170
L72914 26196
L72927 26222
" />
<path d="M72124 26327
L72124 26484
" />
<path d="M72124 26406
L71849 26406
L71888 26432
L71914 26458
L71927 26484
" />
<path d="M71875 26222
L71862 26209
L71849 26183
L71849 26117
L71862 26091
L71875 26078
L71901 26065
L71927 26065
L71967 26078
L72124 26235
L72124 26065
" />
<path d="M69045 26453
L69045 26321
" />
<path d="M69124 26479
L68849 26387
L69124 26295
" />
<path d="M69124 26046
L68993 26138
" />
<path d="M69124 26203
L68849 26203
L68849 26098
L68862 26072
L68875 26059
L68901 26046
L68940 26046
L68967 26059
L68980 26072
L68993 26098
L68993 26203
" />
<path d="M68980 25928
L68980 25836
" />
<path d="M69124 25796
L69124 25928
L68849 25928
L68849 25796
" />
<path d="M71124 26302
L71124 26459
" />
<path d="M71124 26381
L70849 26381
L70888 26407
L70914 26433
L70927 26459
" />
<path d="M70849 26210
L70849 26040
L70954 26131
L70954 26092
L70967 26066
L70980 26053
L71006 26040
L71072 26040
L71098 26053
L71111 26066
L71124 26092
L71124 26171
L71111 26197
L71098 26210
" />
<path d="M69862 26334
L69849 26361
L69849 26400
L69862 26439
L69888 26466
L69914 26479
L69967 26492
L70006 26492
L70059 26479
L70085 26466
L70111 26439
L70124 26400
L70124 26374
L70111 26334
L70098 26321
L70006 26321
L70006 26374
" />
<path d="M70124 26203
L69849 26203
L70124 26046
L69849 26046
" />
<path d="M70124 25915
L69849 25915
L69849 25849
L69862 25810
L69888 25783
L69914 25770
L69967 25757
L70006 25757
L70059 25770
L70085 25783
L70111 25810
L70124 25849
L70124 25915
" />
<path d="M68111 26484
L68124 26445
L68124 26379
L68111 26353
L68098 26340
L68072 26327
L68045 26327
L68019 26340
L68006 26353
L67993 26379
L67980 26432
L67967 26458
L67954 26471
L67927 26484
L67901 26484
L67875 26471
L67862 26458
L67849 26432
L67849 26366
L67862 26327
" />
<path d="M68124 26209
L67849 26209
L67849 26143
L67862 26104
L67888 26077
L67914 26064
L67967 26051
L68006 26051
L68059 26064
L68085 26077
L68111 26104
L68124 26143
L68124 26209
" />
<path d="M68045 25946
L68045 25815
" />
<path d="M68124 25972
L67849 25880
L68124 25789
" />
<path d="M67111 26378
L67124 26338
L67124 26273
L67111 26246
L67098 26233
L67072 26220
L67045 26220
L67019 26233
L67006 26246
L66993 26273
L66980 26325
L66967 26351
L66954 26364
L66927 26378
L66901 26378
L66875 26364
L66862 26351
L66849 26325
L66849 26259
L66862 26220
" />
<path d="M67098 25945
L67111 25958
L67124 25997
L67124 26023
L67111 26063
L67085 26089
L67059 26102
L67006 26115
L66967 26115
L66914 26102
L66888 26089
L66862 26063
L66849 26023
L66849 25997
L66862 25958
L66875 25945
" />
<path d="M67124 25695
L67124 25826
L66849 25826
" />
</g>
<g style="fill:#FFFFFF; fill-opacity:0.0; 
stroke:#FFFFFF; stroke-width:39.3701; stroke-opacity:1; 
stroke-linecap:round; stroke-linejoin:round;">
<path d="M86325 25850
L86325 25600
" />
<path d="M58750 47950
L58750 25600
" />
<path d="M86325 47950
L58750 47950
" />
<path d="M86325 47700
L86325 47950
" />
<path d="M86325 25600
L58750 25600
" />
<path d="M86325 47700
L86325 25850
" />
</g>
<g style="fill:#FFFFFF; fill-opacity:0.0; 
stroke:#FFFFFF; stroke-width:59.0551; stroke-opacity:1; 
stroke-linecap:round; stroke-linejoin:round;">
<path d="M68750 31750
L68750 29750
" />
<path d="M68750 29750
L69750 29750
" />
<path d="M69750 29750
L69750 31750
" />
<path d="M69750 31750
L68750 31750
" />
<path d="M69250 31750
L69250 32250
" />
<path d="M69250 29750
L69250 29250
" />
<path d="M77500 47000
L70500 47000
" />
<path d="M70500 47000
L70500 46000
" />
<path d="M70500 46000
L77500 46000
" />
<path d="M78610 47110
L78000 47110
" />
<path d="M77500 47000
L77500 46000
" />
<path d="M78000 45889
L78610 45889
" />
<path d="M78610 45889
L78610 47110
" />
<path d="M68757 44698
L68757 43517
" />
<path d="M69742 43517
L69742 44698
" />
<path d="M68757 41698
L68757 40517
" />
<path d="M69742 40517
L69742 41698
" />
<path d="M66349 46001
L65799 46001
" />
<path d="M68099 46001
L68699 46001
" />
<path d="M67949 46301
L67949 45701
" />
<path d="M68049 46301
L68049 45701
" />
<path d="M68149 46001
L68149 45701
" />
<path d="M68149 45701
L66349 45701
" />
<path d="M66349 45701
L66349 46301
" />
<path d="M66349 46301
L68149 46301
" />
<path d="M68149 46301
L68149 46001
" />
<path d="M69251 37000
L69251 37550
" />
<path d="M69251 35250
L69251 34650
" />
<path d="M69551 35400
L68951 35400
" />
<path d="M69551 35300
L68951 35300
" />
<path d="M69251 35200
L68951 35200
" />
<path d="M68951 35200
L68951 37000
" />
<path d="M68951 37000
L69551 37000
" />
<path d="M69551 37000
L69551 35200
" />
<path d="M69551 35200
L69251 35200
" />
<path d="M80750 42100
L80750 44100
" />
<path d="M80750 44100
L79750 44100
" />
<path d="M79750 44100
L79750 42100
" />
<path d="M79750 42100
L80750 42100
" />
<path d="M80250 42100
L80250 41600
" />
<path d="M80250 44100
L80250 44600
" />
<path d="M82250 42100
L82250 44100
" />
<path d="M82250 44100
L81250 44100
" />
<path d="M81250 44100
L81250 42100
" />
<path d="M81250 42100
L82250 42100
" />
<path d="M81750 42100
L81750 41600
" />
<path d="M81750 44100
L81750 44600
" />
<path d="M83750 42100
L83750 44100
" />
<path d="M83750 44100
L82750 44100
" />
<path d="M82750 44100
L82750 42100
" />
<path d="M82750 42100
L83750 42100
" />
<path d="M83250 42100
L83250 41600
" />
<path d="M83250 44100
L83250 44600
" />
<path d="M85250 42100
L85250 44100
" />
<path d="M85250 44100
L84250 44100
" />
<path d="M84250 44100
L84250 42100
" />
<path d="M84250 42100
L85250 42100
" />
<path d="M84750 42100
L84750 41600
" />
<path d="M84750 44100
L84750 44600
" />
<path d="M71050 29750
L71050 31750
" />
<path d="M71050 31750
L70050 31750
" />
<path d="M70050 31750
L70050 29750
" />
<path d="M70050 29750
L71050 29750
" />
<path d="M70550 29750
L70550 29250
" />
<path d="M70550 31750
L70550 32250
" />
<path d="M72400 29750
L72400 31750
" />
<path d="M72400 31750
L71400 31750
" />
<path d="M71400 31750
L71400 29750
" />
<path d="M71400 29750
L72400 29750
" />
<path d="M71900 29750
L71900 29250
" />
<path d="M71900 31750
L71900 32250
" />
<path d="M73750 29750
L73750 31750
" />
<path d="M73750 31750
L72750 31750
" />
<path d="M72750 31750
L72750 29750
" />
<path d="M72750 29750
L73750 29750
" />
<path d="M73250 29750
L73250 29250
" />
<path d="M73250 31750
L73250 32250
" />
<path d="M59185 45584
L58988 45584
" />
<circle cx="60760.6" cy="46568.5" r="787.402" /> 
<circle cx="60760.6" cy="44600" r="787.402" /> 
<path d="M59776 43615
L59776 47552
" />
<path d="M61705 43615
L61705 47552
" />
<path d="M59185 43615
L59185 47552
" />
<path d="M58988 43615
L58988 47552
" />
<path d="M58988 47552
L62847 47552
" />
<path d="M62847 47552
L62847 43615
" />
<path d="M62847 43615
L58988 43615
" />
<path d="M65779 44278
L65779 41916
" />
<path d="M65779 41916
L63700 41916
" />
<path d="M63700 41916
L63700 44278
" />
<path d="M63700 44278
L65779 44278
" />
<path d="M65240 41916
L65240 42310
" />
<path d="M65240 42310
L64240 42310
" />
<path d="M64240 42310
L64240 41916
" />
<path d="M65240 42310
L65141 42479
" />
<path d="M65141 42479
L64338 42479
" />
<path d="M64338 42479
L64240 42310
" />
<path d="M65141 41916
L65141 42310
" />
<path d="M64338 41916
L64338 42310
" />
<path d="M65554 44278
L65554 44034
" />
<path d="M65554 44034
L64925 44034
" />
<path d="M64925 44034
L64925 44278
" />
<path d="M64554 44278
L64554 44034
" />
<path d="M64554 44034
L63925 44034
" />
<path d="M63925 44034
L63925 44278
" />
<path d="M63710 30361
L63710 32723
" />
<path d="M63710 32723
L67789 32723
" />
<path d="M67789 32723
L67789 30361
" />
<path d="M67789 30361
L63710 30361
" />
<path d="M64250 32723
L64250 32329
" />
<path d="M64250 32329
L67250 32329
" />
<path d="M67250 32329
L67250 32723
" />
<path d="M64250 32329
L64348 32160
" />
<path d="M64348 32160
L67151 32160
" />
<path d="M67151 32160
L67250 32329
" />
<path d="M64348 32723
L64348 32329
" />
<path d="M67151 32723
L67151 32329
" />
<path d="M63935 30361
L63935 30605
" />
<path d="M63935 30605
L64564 30605
" />
<path d="M64564 30605
L64564 30361
" />
<path d="M64935 30361
L64935 30605
" />
<path d="M64935 30605
L65564 30605
" />
<path d="M65564 30605
L65564 30361
" />
<path d="M65935 30361
L65935 30605
" />
<path d="M65935 30605
L66564 30605
" />
<path d="M66564 30605
L66564 30361
" />
<path d="M66935 30361
L66935 30605
" />
<path d="M66935 30605
L67564 30605
" />
<path d="M67564 30605
L67564 30361
" />
<path d="M60260 26611
L60260 28973
" />
<path d="M60260 28973
L64339 28973
" />
<path d="M64339 28973
L64339 26611
" />
<path d="M64339 26611
L60260 26611
" />
<path d="M60800 28973
L60800 28579
" />
<path d="M60800 28579
L63800 28579
" />
<path d="M63800 28579
L63800 28973
" />
<path d="M60800 28579
L60898 28410
" />
<path d="M60898 28410
L63701 28410
" />
<path d="M63701 28410
L63800 28579
" />
<path d="M60898 28973
L60898 28579
" />
<path d="M63701 28973
L63701 28579
" />
<path d="M60485 26611
L60485 26855
" />
<path d="M60485 26855
L61114 26855
" />
<path d="M61114 26855
L61114 26611
" />
<path d="M61485 26611
L61485 26855
" />
<path d="M61485 26855
L62114 26855
" />
<path d="M62114 26855
L62114 26611
" />
<path d="M62485 26611
L62485 26855
" />
<path d="M62485 26855
L63114 26855
" />
<path d="M63114 26855
L63114 26611
" />
<path d="M63485 26611
L63485 26855
" />
<path d="M63485 26855
L64114 26855
" />
<path d="M64114 26855
L64114 26611
" />
<path d="M62289 37788
L62289 35426
" />
<path d="M62289 35426
L60210 35426
" />
<path d="M60210 35426
L60210 37788
" />
<path d="M60210 37788
L62289 37788
" />
<path d="M61750 35426
L61750 35820
" />
<path d="M61750 35820
L60750 35820
" />
<path d="M60750 35820
L60750 35426
" />
<path d="M61750 35820
L61651 35989
" />
<path d="M61651 35989
L60848 35989
" />
<path d="M60848 35989
L60750 35820
" />
<path d="M61651 35426
L61651 35820
" />
<path d="M60848 35426
L60848 35820
" />
<path d="M62064 37788
L62064 37544
" />
<path d="M62064 37544
L61435 37544
" />
<path d="M61435 37544
L61435 37788
" />
<path d="M61064 37788
L61064 37544
" />
<path d="M61064 37544
L60435 37544
" />
<path d="M60435 37544
L60435 37788
" />
<path d="M84500 47000
L79500 47000
" />
<path d="M79500 47000
L79500 46000
" />
<path d="M79500 46000
L84500 46000
" />
<path d="M85610 47110
L85000 47110
" />
<path d="M84500 47000
L84500 46000
" />
<path d="M85000 45889
L85610 45889
" />
<path d="M85610 45889
L85610 47110
" />
<path d="M72889 37788
L72889 35426
" />
<path d="M72889 35426
L70810 35426
" />
<path d="M70810 35426
L70810 37788
" />
<path d="M70810 37788
L72889 37788
" />
<path d="M72350 35426
L72350 35820
" />
<path d="M72350 35820
L71350 35820
" />
<path d="M71350 35820
L71350 35426
" />
<path d="M72350 35820
L72251 35989
" />
<path d="M72251 35989
L71448 35989
" />
<path d="M71448 35989
L71350 35820
" />
<path d="M72251 35426
L72251 35820
" />
<path d="M71448 35426
L71448 35820
" />
<path d="M72664 37788
L72664 37544
" />
<path d="M72664 37544
L72035 37544
" />
<path d="M72035 37544
L72035 37788
" />
<path d="M71664 37788
L71664 37544
" />
<path d="M71664 37544
L71035 37544
" />
<path d="M71035 37544
L71035 37788
" />
<path d="M85250 39250
L85250 33250
" />
<path d="M85250 33250
L84250 33250
" />
<path d="M84250 33250
L84250 39250
" />
<path d="M85360 40360
L85360 39750
" />
<path d="M85250 39250
L84250 39250
" />
<path d="M84139 39750
L84139 40360
" />
<path d="M84139 40360
L85360 40360
" />
<path d="M67439 37788
L67439 35426
" />
<path d="M67439 35426
L65360 35426
" />
<path d="M65360 35426
L65360 37788
" />
<path d="M65360 37788
L67439 37788
" />
<path d="M66900 35426
L66900 35820
" />
<path d="M66900 35820
L65900 35820
" />
<path d="M65900 35820
L65900 35426
" />
<path d="M66900 35820
L66801 35989
" />
<path d="M66801 35989
L65998 35989
" />
<path d="M65998 35989
L65900 35820
" />
<path d="M66801 35426
L66801 35820
" />
<path d="M65998 35426
L65998 35820
" />
<path d="M67214 37788
L67214 37544
" />
<path d="M67214 37544
L66585 37544
" />
<path d="M66585 37544
L66585 37788
" />
<path d="M66214 37788
L66214 37544
" />
<path d="M66214 37544
L65585 37544
" />
<path d="M65585 37544
L65585 37788
" />
<path d="M62289 32738
L62289 30376
" />
<path d="M62289 30376
L60210 30376
" />
<path d="M60210 30376
L60210 32738
" />
<path d="M60210 32738
L62289 32738
" />
<path d="M61750 30376
L61750 30770
" />
<path d="M61750 30770
L60750 30770
" />
<path d="M60750 30770
L60750 30376
" />
<path d="M61750 30770
L61651 30939
" />
<path d="M61651 30939
L60848 30939
" />
<path d="M60848 30939
L60750 30770
" />
<path d="M61651 30376
L61651 30770
" />
<path d="M60848 30376
L60848 30770
" />
<path d="M62064 32738
L62064 32494
" />
<path d="M62064 32494
L61435 32494
" />
<path d="M61435 32494
L61435 32738
" />
<path d="M61064 32738
L61064 32494
" />
<path d="M61064 32494
L60435 32494
" />
<path d="M60435 32494
L60435 32738
" />
<path d="M67500 26575
L76500 26575
" />
<path d="M76500 26575
L76500 27575
" />
<path d="M76500 27575
L67500 27575
" />
<path d="M66389 26464
L67000 26464
" />
<path d="M67500 26575
L67500 27575
" />
<path d="M67000 27685
L66389 27685
" />
<path d="M66389 27685
L66389 26464
" />
<path d="M77789 37788
L77789 35426
" />
<path d="M77789 35426
L75710 35426
" />
<path d="M75710 35426
L75710 37788
" />
<path d="M75710 37788
L77789 37788
" />
<path d="M77250 35426
L77250 35820
" />
<path d="M77250 35820
L76250 35820
" />
<path d="M76250 35820
L76250 35426
" />
<path d="M77250 35820
L77151 35989
" />
<path d="M77151 35989
L76348 35989
" />
<path d="M76348 35989
L76250 35820
" />
<path d="M77151 35426
L77151 35820
" />
<path d="M76348 35426
L76348 35820
" />
<path d="M77564 37788
L77564 37544
" />
<path d="M77564 37544
L76935 37544
" />
<path d="M76935 37544
L76935 37788
" />
<path d="M76564 37788
L76564 37544
" />
<path d="M76564 37544
L75935 37544
" />
<path d="M75935 37544
L75935 37788
" />
<path d="M82739 32588
L82739 30226
" />
<path d="M82739 30226
L74660 30226
" />
<path d="M74660 30226
L74660 32588
" />
<path d="M74660 32588
L82739 32588
" />
<path d="M82200 30226
L82200 30620
" />
<path d="M82200 30620
L80200 30620
" />
<path d="M80200 30620
L80200 30226
" />
<path d="M82200 30620
L82101 30789
" />
<path d="M82101 30789
L80200 30789
" />
<path d="M80200 30789
L80200 30620
" />
<path d="M82101 30226
L82101 30620
" />
<path d="M75200 30226
L75200 30620
" />
<path d="M75200 30620
L77200 30620
" />
<path d="M77200 30620
L77200 30226
" />
<path d="M75200 30620
L75298 30789
" />
<path d="M75298 30789
L77200 30789
" />
<path d="M77200 30789
L77200 30620
" />
<path d="M75298 30226
L75298 30620
" />
<path d="M82514 32588
L82514 32344
" />
<path d="M82514 32344
L81885 32344
" />
<path d="M81885 32344
L81885 32588
" />
<path d="M81514 32588
L81514 32344
" />
<path d="M81514 32344
L80885 32344
" />
<path d="M80885 32344
L80885 32588
" />
<path d="M80514 32588
L80514 32344
" />
<path d="M80514 32344
L79885 32344
" />
<path d="M79885 32344
L79885 32588
" />
<path d="M79514 32588
L79514 32344
" />
<path d="M79514 32344
L78885 32344
" />
<path d="M78885 32344
L78885 32588
" />
<path d="M78514 32588
L78514 32344
" />
<path d="M78514 32344
L77885 32344
" />
<path d="M77885 32344
L77885 32588
" />
<path d="M77514 32588
L77514 32344
" />
<path d="M77514 32344
L76885 32344
" />
<path d="M76885 32344
L76885 32588
" />
<path d="M76514 32588
L76514 32344
" />
<path d="M76514 32344
L75885 32344
" />
<path d="M75885 32344
L75885 32588
" />
<path d="M75514 32588
L75514 32344
" />
<path d="M75514 32344
L74885 32344
" />
<path d="M74885 32344
L74885 32588
" />
<path d="M82039 37938
L82039 35576
" />
<path d="M82039 35576
L79960 35576
" />
<path d="M79960 35576
L79960 37938
" />
<path d="M79960 37938
L82039 37938
" />
<path d="M81500 35576
L81500 35970
" />
<path d="M81500 35970
L80500 35970
" />
<path d="M80500 35970
L80500 35576
" />
<path d="M81500 35970
L81401 36139
" />
<path d="M81401 36139
L80598 36139
" />
<path d="M80598 36139
L80500 35970
" />
<path d="M81401 35576
L81401 35970
" />
<path d="M80598 35576
L80598 35970
" />
<path d="M81814 37938
L81814 37694
" />
<path d="M81814 37694
L81185 37694
" />
<path d="M81185 37694
L81185 37938
" />
<path d="M80814 37938
L80814 37694
" />
<path d="M80814 37694
L80185 37694
" />
<path d="M80185 37694
L80185 37938
" />
<path d="M85250 29500
L85250 32500
" />
<path d="M84250 29500
L84250 32500
" />
<path d="M84139 28389
L84139 29000
" />
<path d="M85250 32500
L84250 32500
" />
<path d="M84250 29500
L85250 29500
" />
<path d="M85360 29000
L85360 28389
" />
<path d="M85360 28389
L84139 28389
" />
<path d="M72250 39750
L70250 39750
" />
<path d="M70250 39750
L70250 38750
" />
<path d="M70250 38750
L72250 38750
" />
<path d="M72250 38750
L72250 39750
" />
<path d="M72250 39250
L72750 39250
" />
<path d="M70250 39250
L69750 39250
" />
<path d="M75700 39700
L77050 39700
" />
<path d="M75700 43500
L77050 43500
" />
<path d="M75250 39500
L75250 43700
" />
<path d="M75650 40900
L75150 40900
" />
<path d="M75650 42300
L75150 42300
" />
<path d="M75700 43700
L75700 39500
" />
<path d="M77050 39500
L77050 43700
" />
<path d="M75150 43700
L77050 43700
" />
<path d="M75150 39500
L77050 39500
" />
<path d="M75150 39500
L75150 43700
" />
<path d="M78500 26575
L85500 26575
" />
<path d="M85500 26575
L85500 27575
" />
<path d="M85500 27575
L78500 27575
" />
<path d="M77389 26464
L78000 26464
" />
<path d="M78500 26575
L78500 27575
" />
<path d="M78000 27685
L77389 27685
" />
<path d="M77389 27685
L77389 26464
" />
<path d="M67469 40569
L67469 39230
" />
<path d="M65855.1 39900 A944.882 944.882 0.0 0 0 67468.1 40568.1 " />
<path d="M67468.1 39231.9 A944.882 944.882 0.0 0 0 65855.1 39900 " />
</g>
<g style="fill:#FFFFFF; fill-opacity:0.0; 
stroke:#FFFFFF; stroke-width:196.85; stroke-opacity:1; 
stroke-linecap:round; stroke-linejoin:round;">
<circle cx="69250" cy="32750" r="295.075" /> 
<circle cx="69250" cy="28750" r="295.075" /> 
<path d="M77896 46302
L77896 46697
" />
<path d="M78103 46302
L78103 46697
" />
<path d="M77896.2 46697.8 A103.78 103.78 0.0 0 0 78103.8 46697.8 " />
<path d="M78103.8 46302.2 A103.78 103.78 0.0 0 0 77896.2 46302.2 " />
<polyline fill="none;"
points="76856,46237
77143,46237
77143,46762
76856,46762
76856,46237
" /> 
<path d="M75758 46440
L75758 46560
" />
<path d="M76241 46440
L76241 46560
" />
<path d="M75758.4 46560 A241.575 241.575 0.0 0 0 76241.6 46560 " />
<path d="M76241.6 46440 A241.575 241.575 0.0 0 0 75758.4 46440 " />
<path d="M74758 46440
L74758 46560
" />
<path d="M75241 46440
L75241 46560
" />
<path d="M74758.4 46560 A241.575 241.575 0.0 0 0 75241.6 46560 " />
<path d="M75241.6 46440 A241.575 241.575 0.0 0 0 74758.4 46440 " />
<path d="M73758 46440
L73758 46560
" />
<path d="M74241 46440
L74241 46560
" />
<path d="M73758.4 46560 A241.575 241.575 0.0 0 0 74241.6 46560 " />
<path d="M74241.6 46440 A241.575 241.575 0.0 0 0 73758.4 46440 " />
<path d="M72758 46440
L72758 46560
" />
<path d="M73241 46440
L73241 46560
" />
<path d="M72758.4 46560 A241.575 241.575 0.0 0 0 73241.6 46560 " />
<path d="M73241.6 46440 A241.575 241.575 0.0 0 0 72758.4 46440 " />
<path d="M71758 46440
L71758 46560
" />
<path d="M72241 46440
L72241 46560
" />
<path d="M71758.4 46560 A241.575 241.575 0.0 0 0 72241.6 46560 " />
<path d="M72241.6 46440 A241.575 241.575 0.0 0 0 71758.4 46440 " />
<path d="M70758 46440
L70758 46560
" />
<path d="M71241 46440
L71241 46560
" />
<path d="M70758.4 46560 A241.575 241.575 0.0 0 0 71241.6 46560 " />
<path d="M71241.6 46440 A241.575 241.575 0.0 0 0 70758.4 46440 " />
<polyline fill="none;"
points="69407,44757
69092,44757
69092,44442
69407,44442
69407,44757
" /> 
<circle cx="69250" cy="43615.7" r="157.48" /> 
<polyline fill="none;"
points="69407,41757
69092,41757
69092,41442
69407,41442
69407,41757
" /> 
<circle cx="69250" cy="40615.7" r="157.48" /> 
<circle cx="65249.8" cy="46001" r="236.075" /> 
<polyline fill="none;"
points="69013,46237
69013,45764
69485,45764
69485,46237
69013,46237
" /> 
<circle cx="69251" cy="38100.2" r="236.075" /> 
<polyline fill="none;"
points="69487,34336
69014,34336
69014,33864
69487,33864
69487,34336
" /> 
<circle cx="80250" cy="41100" r="295.075" /> 
<circle cx="80250" cy="45100" r="295.075" /> 
<circle cx="81750" cy="41100" r="295.075" /> 
<circle cx="81750" cy="45100" r="295.075" /> 
<circle cx="83250" cy="41100" r="295.075" /> 
<circle cx="83250" cy="45100" r="295.075" /> 
<circle cx="84750" cy="41100" r="295.075" /> 
<circle cx="84750" cy="45100" r="295.075" /> 
<circle cx="70550" cy="28750" r="295.075" /> 
<circle cx="70550" cy="32750" r="295.075" /> 
<circle cx="71900" cy="28750" r="295.075" /> 
<circle cx="71900" cy="32750" r="295.075" /> 
<circle cx="73250" cy="28750" r="295.075" /> 
<circle cx="73250" cy="32750" r="295.075" /> 
<polyline fill="none;"
points="60406,44206
61193,44206
61193,44993
60406,44993
60406,44206
" /> 
<circle cx="60800" cy="46568.5" r="393.701" /> 
<polyline fill="none;"
points="65495,42715
65495,43464
64984,43464
64984,42715
65495,42715
" /> 
<path d="M64495 43208
L64495 42971
" />
<path d="M63984 43208
L63984 42971
" />
<path d="M64495.9 42971.9 A255.906 255.906 0.0 0 0 63984.1 42971.9 " />
<path d="M63984.1 43208.1 A255.906 255.906 0.0 0 0 64495.9 43208.1 " />
<polyline fill="none;"
points="63954,31963
63954,31136
64545,31136
64545,31963
63954,31963
" /> 
<path d="M64954 31431
L64954 31668
" />
<path d="M65545 31431
L65545 31668
" />
<path d="M64954.7 31668.1 A295.276 295.276 0.0 0 0 65545.3 31668.1 " />
<path d="M65545.3 31431.9 A295.276 295.276 0.0 0 0 64954.7 31431.9 " />
<path d="M65954 31431
L65954 31668
" />
<path d="M66545 31431
L66545 31668
" />
<path d="M65954.7 31668.1 A295.276 295.276 0.0 0 0 66545.3 31668.1 " />
<path d="M66545.3 31431.9 A295.276 295.276 0.0 0 0 65954.7 31431.9 " />
<path d="M66954 31431
L66954 31668
" />
<path d="M67545 31431
L67545 31668
" />
<path d="M66954.7 31668.1 A295.276 295.276 0.0 0 0 67545.3 31668.1 " />
<path d="M67545.3 31431.9 A295.276 295.276 0.0 0 0 66954.7 31431.9 " />
<polyline fill="none;"
points="60504,28213
60504,27386
61095,27386
61095,28213
60504,28213
" /> 
<path d="M61504 27681
L61504 27918
" />
<path d="M62095 27681
L62095 27918
" />
<path d="M61504.7 27918.1 A295.276 295.276 0.0 0 0 62095.3 27918.1 " />
<path d="M62095.3 27681.9 A295.276 295.276 0.0 0 0 61504.7 27681.9 " />
<circle cx="62800" cy="27800" r="295.276" /> 
<circle cx="63800" cy="27800" r="295.276" /> 
<polyline fill="none;"
points="62045,36186
62045,37013
61454,37013
61454,36186
62045,36186
" /> 
<path d="M61045 36718
L61045 36481
" />
<path d="M60454 36718
L60454 36481
" />
<path d="M61045.3 36481.9 A295.276 295.276 0.0 0 0 60454.7 36481.9 " />
<path d="M60454.7 36718.1 A295.276 295.276 0.0 0 0 61045.3 36718.1 " />
<polyline fill="none;"
points="84758,46198
85241,46198
85241,46801
84758,46801
84758,46198
" /> 
<path d="M83758 46440
L83758 46560
" />
<path d="M84241 46440
L84241 46560
" />
<path d="M83758.4 46560 A241.575 241.575 0.0 0 0 84241.6 46560 " />
<path d="M84241.6 46440 A241.575 241.575 0.0 0 0 83758.4 46440 " />
<path d="M82758 46440
L82758 46560
" />
<path d="M83241 46440
L83241 46560
" />
<path d="M82758.4 46560 A241.575 241.575 0.0 0 0 83241.6 46560 " />
<path d="M83241.6 46440 A241.575 241.575 0.0 0 0 82758.4 46440 " />
<path d="M81758 46440
L81758 46560
" />
<path d="M82241 46440
L82241 46560
" />
<path d="M81758.4 46560 A241.575 241.575 0.0 0 0 82241.6 46560 " />
<path d="M82241.6 46440 A241.575 241.575 0.0 0 0 81758.4 46440 " />
<path d="M80758 46440
L80758 46560
" />
<path d="M81241 46440
L81241 46560
" />
<path d="M80758.4 46560 A241.575 241.575 0.0 0 0 81241.6 46560 " />
<path d="M81241.6 46440 A241.575 241.575 0.0 0 0 80758.4 46440 " />
<path d="M79758 46440
L79758 46560
" />
<path d="M80241 46440
L80241 46560
" />
<path d="M79758.4 46560 A241.575 241.575 0.0 0 0 80241.6 46560 " />
<path d="M80241.6 46440 A241.575 241.575 0.0 0 0 79758.4 46440 " />
<polyline fill="none;"
points="72468,36186
72468,37013
72231,37013
72231,36186
72468,36186
" /> 
<path d="M71468 36895
L71468 36304
" />
<path d="M71231 36895
L71231 36304
" />
<path d="M71468.1 36304.7 A118.11 118.11 0.0 0 0 71231.9 36304.7 " />
<path d="M71231.9 36895.3 A118.11 118.11 0.0 0 0 71468.1 36895.3 " />
<polyline fill="none;"
points="85051,39991
84448,39991
84448,39508
85051,39508
85051,39991
" /> 
<path d="M84690 38991
L84810 38991
" />
<path d="M84690 38508
L84810 38508
" />
<path d="M84810 38991.6 A241.575 241.575 0.0 0 0 84810 38508.4 " />
<path d="M84690 38508.4 A241.575 241.575 0.0 0 0 84690 38991.6 " />
<path d="M84690 37991
L84810 37991
" />
<path d="M84690 37508
L84810 37508
" />
<path d="M84810 37991.6 A241.575 241.575 0.0 0 0 84810 37508.4 " />
<path d="M84690 37508.4 A241.575 241.575 0.0 0 0 84690 37991.6 " />
<path d="M84690 36991
L84810 36991
" />
<path d="M84690 36508
L84810 36508
" />
<path d="M84810 36991.6 A241.575 241.575 0.0 0 0 84810 36508.4 " />
<path d="M84690 36508.4 A241.575 241.575 0.0 0 0 84690 36991.6 " />
<path d="M84690 35991
L84810 35991
" />
<path d="M84690 35508
L84810 35508
" />
<path d="M84810 35991.6 A241.575 241.575 0.0 0 0 84810 35508.4 " />
<path d="M84690 35508.4 A241.575 241.575 0.0 0 0 84690 35991.6 " />
<path d="M84690 34991
L84810 34991
" />
<path d="M84690 34508
L84810 34508
" />
<path d="M84810 34991.6 A241.575 241.575 0.0 0 0 84810 34508.4 " />
<path d="M84690 34508.4 A241.575 241.575 0.0 0 0 84690 34991.6 " />
<path d="M84690 33991
L84810 33991
" />
<path d="M84690 33508
L84810 33508
" />
<path d="M84810 33991.6 A241.575 241.575 0.0 0 0 84810 33508.4 " />
<path d="M84690 33508.4 A241.575 241.575 0.0 0 0 84690 33991.6 " />
<polyline fill="none;"
points="67195,36186
67195,37013
66604,37013
66604,36186
67195,36186
" /> 
<path d="M66195 36718
L66195 36481
" />
<path d="M65604 36718
L65604 36481
" />
<path d="M66195.3 36481.9 A295.276 295.276 0.0 0 0 65604.7 36481.9 " />
<path d="M65604.7 36718.1 A295.276 295.276 0.0 0 0 66195.3 36718.1 " />
<polyline fill="none;"
points="62045,31136
62045,31963
61454,31963
61454,31136
62045,31136
" /> 
<path d="M61045 31668
L61045 31431
" />
<path d="M60454 31668
L60454 31431
" />
<path d="M61045.3 31431.9 A295.276 295.276 0.0 0 0 60454.7 31431.9 " />
<path d="M60454.7 31668.1 A295.276 295.276 0.0 0 0 61045.3 31668.1 " />
<polyline fill="none;"
points="67241,27376
66758,27376
66758,26773
67241,26773
67241,27376
" /> 
<path d="M68241 27135
L68241 27015
" />
<path d="M67758 27135
L67758 27015
" />
<path d="M68241.6 27015 A241.575 241.575 0.0 0 0 67758.4 27015 " />
<path d="M67758.4 27135 A241.575 241.575 0.0 0 0 68241.6 27135 " />
<path d="M69241 27135
L69241 27015
" />
<path d="M68758 27135
L68758 27015
" />
<path d="M69241.6 27015 A241.575 241.575 0.0 0 0 68758.4 27015 " />
<path d="M68758.4 27135 A241.575 241.575 0.0 0 0 69241.6 27135 " />
<path d="M70241 27135
L70241 27015
" />
<path d="M69758 27135
L69758 27015
" />
<path d="M70241.6 27015 A241.575 241.575 0.0 0 0 69758.4 27015 " />
<path d="M69758.4 27135 A241.575 241.575 0.0 0 0 70241.6 27135 " />
<path d="M71241 27135
L71241 27015
" />
<path d="M70758 27135
L70758 27015
" />
<path d="M71241.6 27015 A241.575 241.575 0.0 0 0 70758.4 27015 " />
<path d="M70758.4 27135 A241.575 241.575 0.0 0 0 71241.6 27135 " />
<path d="M72241 27135
L72241 27015
" />
<path d="M71758 27135
L71758 27015
" />
<path d="M72241.6 27015 A241.575 241.575 0.0 0 0 71758.4 27015 " />
<path d="M71758.4 27135 A241.575 241.575 0.0 0 0 72241.6 27135 " />
<path d="M73241 27135
L73241 27015
" />
<path d="M72758 27135
L72758 27015
" />
<path d="M73241.6 27015 A241.575 241.575 0.0 0 0 72758.4 27015 " />
<path d="M72758.4 27135 A241.575 241.575 0.0 0 0 73241.6 27135 " />
<path d="M74241 27135
L74241 27015
" />
<path d="M73758 27135
L73758 27015
" />
<path d="M74241.6 27015 A241.575 241.575 0.0 0 0 73758.4 27015 " />
<path d="M73758.4 27135 A241.575 241.575 0.0 0 0 74241.6 27135 " />
<path d="M75241 27135
L75241 27015
" />
<path d="M74758 27135
L74758 27015
" />
<path d="M75241.6 27015 A241.575 241.575 0.0 0 0 74758.4 27015 " />
<path d="M74758.4 27135 A241.575 241.575 0.0 0 0 75241.6 27135 " />
<path d="M76241 27135
L76241 27015
" />
<path d="M75758 27135
L75758 27015
" />
<path d="M76241.6 27015 A241.575 241.575 0.0 0 0 75758.4 27015 " />
<path d="M75758.4 27135 A241.575 241.575 0.0 0 0 76241.6 27135 " />
<polyline fill="none;"
points="77545,36186
77545,37013
76954,37013
76954,36186
77545,36186
" /> 
<path d="M76545 36718
L76545 36481
" />
<path d="M75954 36718
L75954 36481
" />
<path d="M76545.3 36481.9 A295.276 295.276 0.0 0 0 75954.7 36481.9 " />
<path d="M75954.7 36718.1 A295.276 295.276 0.0 0 0 76545.3 36718.1 " />
<polyline fill="none;"
points="82495,30986
82495,31813
81904,31813
81904,30986
82495,30986
" /> 
<path d="M81495 31518
L81495 31281
" />
<path d="M80904 31518
L80904 31281
" />
<path d="M81495.3 31281.9 A295.276 295.276 0.0 0 0 80904.7 31281.9 " />
<path d="M80904.7 31518.1 A295.276 295.276 0.0 0 0 81495.3 31518.1 " />
<path d="M80495 31518
L80495 31281
" />
<path d="M79904 31518
L79904 31281
" />
<path d="M80495.3 31281.9 A295.276 295.276 0.0 0 0 79904.7 31281.9 " />
<path d="M79904.7 31518.1 A295.276 295.276 0.0 0 0 80495.3 31518.1 " />
<path d="M79495 31518
L79495 31281
" />
<path d="M78904 31518
L78904 31281
" />
<path d="M79495.3 31281.9 A295.276 295.276 0.0 0 0 78904.7 31281.9 " />
<path d="M78904.7 31518.1 A295.276 295.276 0.0 0 0 79495.3 31518.1 " />
<path d="M78495 31518
L78495 31281
" />
<path d="M77904 31518
L77904 31281
" />
<path d="M78495.3 31281.9 A295.276 295.276 0.0 0 0 77904.7 31281.9 " />
<path d="M77904.7 31518.1 A295.276 295.276 0.0 0 0 78495.3 31518.1 " />
<path d="M77495 31518
L77495 31281
" />
<path d="M76904 31518
L76904 31281
" />
<path d="M77495.3 31281.9 A295.276 295.276 0.0 0 0 76904.7 31281.9 " />
<path d="M76904.7 31518.1 A295.276 295.276 0.0 0 0 77495.3 31518.1 " />
<path d="M76495 31518
L76495 31281
" />
<path d="M75904 31518
L75904 31281
" />
<path d="M76495.3 31281.9 A295.276 295.276 0.0 0 0 75904.7 31281.9 " />
<path d="M75904.7 31518.1 A295.276 295.276 0.0 0 0 76495.3 31518.1 " />
<path d="M75495 31518
L75495 31281
" />
<path d="M74904 31518
L74904 31281
" />
<path d="M75495.3 31281.9 A295.276 295.276 0.0 0 0 74904.7 31281.9 " />
<path d="M74904.7 31518.1 A295.276 295.276 0.0 0 0 75495.3 31518.1 " />
<polyline fill="none;"
points="81795,36336
81795,37163
81204,37163
81204,36336
81795,36336
" /> 
<path d="M80795 36868
L80795 36631
" />
<path d="M80204 36868
L80204 36631
" />
<path d="M80795.3 36631.9 A295.276 295.276 0.0 0 0 80204.7 36631.9 " />
<path d="M80204.7 36868.1 A295.276 295.276 0.0 0 0 80795.3 36868.1 " />
<polyline fill="none;"
points="84448,28758
85051,28758
85051,29241
84448,29241
84448,28758
" /> 
<path d="M84810 29758
L84690 29758
" />
<path d="M84810 30241
L84690 30241
" />
<path d="M84690 29758.4 A241.575 241.575 0.0 0 0 84690 30241.6 " />
<path d="M84810 30241.6 A241.575 241.575 0.0 0 0 84810 29758.4 " />
<path d="M84810 30758
L84690 30758
" />
<path d="M84810 31241
L84690 31241
" />
<path d="M84690 30758.4 A241.575 241.575 0.0 0 0 84690 31241.6 " />
<path d="M84810 31241.6 A241.575 241.575 0.0 0 0 84810 30758.4 " />
<path d="M84810 31758
L84690 31758
" />
<path d="M84810 32241
L84690 32241
" />
<path d="M84690 31758.4 A241.575 241.575 0.0 0 0 84690 32241.6 " />
<path d="M84810 32241.6 A241.575 241.575 0.0 0 0 84810 31758.4 " />
<circle cx="73250" cy="39250" r="295.075" /> 
<circle cx="69250" cy="39250" r="295.075" /> 
<path d="M76250 41901
L76450 41901
" />
<path d="M76250 41298
L76450 41298
" />
<path d="M76450 41901.6 A301.575 301.575 0.0 0 0 76450 41298.4 " />
<path d="M76250 41298.4 A301.575 301.575 0.0 0 0 76250 41901.6 " />
<path d="M76250 40901
L76450 40901
" />
<path d="M76250 40298
L76450 40298
" />
<path d="M76450 40901.6 A301.575 301.575 0.0 0 0 76450 40298.4 " />
<path d="M76250 40298.4 A301.575 301.575 0.0 0 0 76250 40901.6 " />
<path d="M76250 42901
L76450 42901
" />
<path d="M76250 42298
L76450 42298
" />
<path d="M76450 42901.6 A301.575 301.575 0.0 0 0 76450 42298.4 " />
<path d="M76250 42298.4 A301.575 301.575 0.0 0 0 76250 42901.6 " />
<polyline fill="none;"
points="78241,27376
77758,27376
77758,26773
78241,26773
78241,27376
" /> 
<path d="M79241 27135
L79241 27015
" />
<path d="M78758 27135
L78758 27015
" />
<path d="M79241.6 27015 A241.575 241.575 0.0 0 0 78758.4 27015 " />
<path d="M78758.4 27135 A241.575 241.575 0.0 0 0 79241.6 27135 " />
<path d="M80241 27135
L80241 27015
" />
<path d="M79758 27135
L79758 27015
" />
<path d="M80241.6 27015 A241.575 241.575 0.0 0 0 79758.4 27015 " />
<path d="M79758.4 27135 A241.575 241.575 0.0 0 0 80241.6 27135 " />
<path d="M81241 27135
L81241 27015
" />
<path d="M80758 27135
L80758 27015
" />
<path d="M81241.6 27015 A241.575 241.575 0.0 0 0 80758.4 27015 " />
<path d="M80758.4 27135 A241.575 241.575 0.0 0 0 81241.6 27135 " />
<path d="M82241 27135
L82241 27015
" />
<path d="M81758 27135
L81758 27015
" />
<path d="M82241.6 27015 A241.575 241.575 0.0 0 0 81758.4 27015 " />
<path d="M81758.4 27135 A241.575 241.575 0.0 0 0 82241.6 27135 " />
<path d="M83182 27194
L83182 26955
" />
<path d="M82817 27194
L82817 26955
" />
<path d="M83182.5 26955.9 A182.52 182.52 0.0 0 0 82817.5 26955.9 " />
<path d="M82817.5 27194.1 A182.52 182.52 0.0 0 0 83182.5 27194.1 " />
<path d="M84182 27194
L84182 26955
" />
<path d="M83817 27194
L83817 26955
" />
<path d="M84182.5 26955.9 A182.52 182.52 0.0 0 0 83817.5 26955.9 " />
<path d="M83817.5 27194.1 A182.52 182.52 0.0 0 0 84182.5 27194.1 " />
<path d="M85241 27135
L85241 27015
" />
<path d="M84758 27135
L84758 27015
" />
<path d="M85241.6 27015 A241.575 241.575 0.0 0 0 84758.4 27015 " />
<path d="M84758.4 27135 A241.575 241.575 0.0 0 0 85241.6 27135 " />
<circle cx="66300" cy="39900" r="98.5748" /> 
<circle cx="66800" cy="39400" r="98.5748" /> 
<circle cx="66800" cy="40400" r="98.5748" /> 
</g>
<g style="fill:#FFFFFF; fill-opacity:0.0; 
stroke:#FFFFFF; stroke-width:59.0551; stroke-opacity:1; 
stroke-linecap:round; stroke-linejoin:round;">
<path d="M68584 29628
L68453 29440
" />
<path d="M68359 29628
L68359 29234
L68509 29234
L68546 29253
L68565 29271
L68584 29309
L68584 29365
L68565 29403
L68546 29421
L68509 29440
L68359 29440
" />
<path d="M68940 29234
L68753 29234
L68734 29421
L68753 29403
L68790 29384
L68884 29384
L68921 29403
L68940 29421
L68959 29459
L68959 29553
L68940 29590
L68921 29609
L68884 29628
L68790 29628
L68753 29609
L68734 29590
" />
<path d="M69165 31049
L69428 31049
" />
<path d="M69015 31143
L69296 31237
L69296 30993
" />
<path d="M69034 30881
L69034 30618
L69428 30787
" />
<path d="M69034 30393
L69034 30356
L69053 30318
L69071 30300
L69109 30281
L69184 30262
L69278 30262
L69353 30281
L69390 30300
L69409 30318
L69428 30356
L69428 30393
L69409 30431
L69390 30450
L69353 30468
L69278 30487
L69184 30487
L69109 30468
L69071 30450
L69053 30431
L69034 30393
" />
<path d="M69775 46284
L69775 46603
L69793 46640
L69812 46659
L69850 46678
L69925 46678
L69962 46659
L69981 46640
L70000 46603
L70000 46284
" />
<path d="M70356 46415
L70356 46678
" />
<path d="M70262 46265
L70168 46546
L70412 46546
" />
<path d="M68200 44248
L68181 44267
L68125 44285
L68087 44285
L68031 44267
L67993 44229
L67975 44192
L67956 44117
L67956 44061
L67975 43986
L67993 43948
L68031 43911
L68087 43892
L68125 43892
L68181 43911
L68200 43929
" />
<path d="M68575 44285
L68350 44285
" />
<path d="M68462 44285
L68462 43892
L68425 43948
L68387 43986
L68350 44004
" />
<path d="M70428 44609
L70428 44834
" />
<path d="M70428 44721
L70034 44721
L70090 44759
L70128 44796
L70146 44834
" />
<path d="M70034 44365
L70034 44328
L70053 44290
L70071 44271
L70109 44253
L70184 44234
L70278 44234
L70353 44253
L70390 44271
L70409 44290
L70428 44328
L70428 44365
L70409 44403
L70390 44421
L70353 44440
L70278 44459
L70184 44459
L70109 44440
L70071 44421
L70053 44403
L70034 44365
" />
<path d="M70034 43990
L70034 43953
L70053 43915
L70071 43896
L70109 43878
L70184 43859
L70278 43859
L70353 43878
L70390 43896
L70409 43915
L70428 43953
L70428 43990
L70409 44028
L70390 44046
L70353 44065
L70278 44084
L70184 44084
L70109 44065
L70071 44046
L70053 44028
L70034 43990
" />
<path d="M70165 43690
L70428 43690
" />
<path d="M70203 43690
L70184 43671
L70165 43634
L70165 43578
L70184 43540
L70221 43521
L70428 43521
" />
<path d="M70221 43203
L70221 43334
" />
<path d="M70428 43334
L70034 43334
L70034 43146
" />
<path d="M68184 41890
L68165 41909
L68109 41928
L68071 41928
L68015 41909
L67978 41871
L67959 41834
L67940 41759
L67940 41703
L67959 41628
L67978 41590
L68015 41553
L68071 41534
L68109 41534
L68165 41553
L68184 41571
" />
<path d="M68334 41571
L68353 41553
L68390 41534
L68484 41534
L68521 41553
L68540 41571
L68559 41609
L68559 41646
L68540 41703
L68315 41928
L68559 41928
" />
<path d="M70428 41859
L70428 42084
" />
<path d="M70428 41971
L70034 41971
L70090 42009
L70128 42046
L70146 42084
" />
<path d="M70034 41615
L70034 41578
L70053 41540
L70071 41521
L70109 41503
L70184 41484
L70278 41484
L70353 41503
L70390 41521
L70409 41540
L70428 41578
L70428 41615
L70409 41653
L70390 41671
L70353 41690
L70278 41709
L70184 41709
L70109 41690
L70071 41671
L70053 41653
L70034 41615
" />
<path d="M70034 41240
L70034 41203
L70053 41165
L70071 41146
L70109 41128
L70184 41109
L70278 41109
L70353 41128
L70390 41146
L70409 41165
L70428 41203
L70428 41240
L70409 41278
L70390 41296
L70353 41315
L70278 41334
L70184 41334
L70109 41315
L70071 41296
L70053 41278
L70034 41240
" />
<path d="M70165 40940
L70428 40940
" />
<path d="M70203 40940
L70184 40921
L70165 40884
L70165 40828
L70184 40790
L70221 40771
L70428 40771
" />
<path d="M70221 40453
L70221 40584
" />
<path d="M70428 40584
L70034 40584
L70034 40396
" />
<path d="M65809 45478
L65809 45084
L65903 45084
L65959 45103
L65996 45140
L66015 45178
L66034 45253
L66034 45309
L66015 45384
L65996 45421
L65959 45459
L65903 45478
L65809 45478
" />
<path d="M66409 45478
L66184 45478
" />
<path d="M66296 45478
L66296 45084
L66259 45140
L66221 45178
L66184 45196
" />
<path d="M66406 46928
L66181 46928
" />
<path d="M66293 46928
L66293 46534
L66256 46590
L66218 46628
L66181 46646
" />
<path d="M66575 46928
L66575 46534
L66800 46928
L66800 46534
" />
<path d="M67156 46665
L67156 46928
" />
<path d="M67062 46515
L66968 46796
L67212 46796
" />
<path d="M67437 46534
L67474 46534
L67512 46553
L67531 46571
L67549 46609
L67568 46684
L67568 46778
L67549 46853
L67531 46890
L67512 46909
L67474 46928
L67437 46928
L67399 46909
L67381 46890
L67362 46853
L67343 46778
L67343 46684
L67362 46609
L67381 46571
L67399 46553
L67437 46534
" />
<path d="M67812 46534
L67849 46534
L67887 46553
L67906 46571
L67924 46609
L67943 46684
L67943 46778
L67924 46853
L67906 46890
L67887 46909
L67849 46928
L67812 46928
L67774 46909
L67756 46890
L67737 46853
L67718 46778
L67718 46684
L67737 46609
L67756 46571
L67774 46553
L67812 46534
" />
<path d="M68074 46534
L68337 46534
L68168 46928
" />
<path d="M68409 35078
L68409 34684
L68503 34684
L68559 34703
L68596 34740
L68615 34778
L68634 34853
L68634 34909
L68615 34984
L68596 35021
L68559 35059
L68503 35078
L68409 35078
" />
<path d="M68784 34721
L68803 34703
L68840 34684
L68934 34684
L68971 34703
L68990 34721
L69009 34759
L69009 34796
L68990 34853
L68765 35078
L69009 35078
" />
<path d="M70028 36943
L70028 37168
" />
<path d="M70028 37056
L69634 37056
L69690 37093
L69728 37131
L69746 37168
" />
<path d="M70028 36774
L69634 36774
L70028 36549
L69634 36549
" />
<path d="M69765 36193
L70028 36193
" />
<path d="M69615 36287
L69896 36381
L69896 36137
" />
<path d="M69634 35912
L69634 35875
L69653 35837
L69671 35818
L69709 35800
L69784 35781
L69878 35781
L69953 35800
L69990 35818
L70009 35837
L70028 35875
L70028 35912
L70009 35950
L69990 35968
L69953 35987
L69878 36006
L69784 36006
L69709 35987
L69671 35968
L69653 35950
L69634 35912
" />
<path d="M69634 35537
L69634 35500
L69653 35462
L69671 35443
L69709 35425
L69784 35406
L69878 35406
L69953 35425
L69990 35443
L70009 35462
L70028 35500
L70028 35537
L70009 35575
L69990 35593
L69953 35612
L69878 35631
L69784 35631
L69709 35612
L69671 35593
L69653 35575
L69634 35537
" />
<path d="M69634 35275
L69634 35012
L70028 35181
" />
<path d="M79484 41928
L79353 41740
" />
<path d="M79259 41928
L79259 41534
L79409 41534
L79446 41553
L79465 41571
L79484 41609
L79484 41665
L79465 41703
L79446 41721
L79409 41740
L79259 41740
" />
<path d="M79859 41928
L79634 41928
" />
<path d="M79746 41928
L79746 41534
L79709 41590
L79671 41628
L79634 41646
" />
<path d="M84978 43271
L84978 43496
" />
<path d="M84978 43384
L84584 43384
L84640 43421
L84678 43459
L84696 43496
" />
<path d="M84584 43028
L84584 42990
L84603 42953
L84621 42934
L84659 42915
L84734 42896
L84828 42896
L84903 42915
L84940 42934
L84959 42953
L84978 42990
L84978 43028
L84959 43065
L84940 43084
L84903 43103
L84828 43121
L84734 43121
L84659 43103
L84621 43084
L84603 43065
L84584 43028
" />
<path d="M84978 42728
L84584 42728
" />
<path d="M84978 42503
L84753 42671
" />
<path d="M84584 42503
L84809 42728
" />
<path d="M81034 41928
L80903 41740
" />
<path d="M80809 41928
L80809 41534
L80959 41534
L80996 41553
L81015 41571
L81034 41609
L81034 41665
L81015 41703
L80996 41721
L80959 41740
L80809 41740
" />
<path d="M81184 41571
L81203 41553
L81240 41534
L81334 41534
L81371 41553
L81390 41571
L81409 41609
L81409 41646
L81390 41703
L81165 41928
L81409 41928
" />
<path d="M80428 43371
L80428 43596
" />
<path d="M80428 43484
L80034 43484
L80090 43521
L80128 43559
L80146 43596
" />
<path d="M80034 43128
L80034 43090
L80053 43053
L80071 43034
L80109 43015
L80184 42996
L80278 42996
L80353 43015
L80390 43034
L80409 43053
L80428 43090
L80428 43128
L80409 43165
L80390 43184
L80353 43203
L80278 43221
L80184 43221
L80109 43203
L80071 43184
L80053 43165
L80034 43128
" />
<path d="M80428 42828
L80034 42828
" />
<path d="M80428 42603
L80203 42771
" />
<path d="M80034 42603
L80259 42828
" />
<path d="M82534 41928
L82403 41740
" />
<path d="M82309 41928
L82309 41534
L82459 41534
L82496 41553
L82515 41571
L82534 41609
L82534 41665
L82515 41703
L82496 41721
L82459 41740
L82309 41740
" />
<path d="M82665 41534
L82909 41534
L82778 41684
L82834 41684
L82871 41703
L82890 41721
L82909 41759
L82909 41853
L82890 41890
L82871 41909
L82834 41928
L82721 41928
L82684 41909
L82665 41890
" />
<path d="M81928 43371
L81928 43596
" />
<path d="M81928 43484
L81534 43484
L81590 43521
L81628 43559
L81646 43596
" />
<path d="M81534 43128
L81534 43090
L81553 43053
L81571 43034
L81609 43015
L81684 42996
L81778 42996
L81853 43015
L81890 43034
L81909 43053
L81928 43090
L81928 43128
L81909 43165
L81890 43184
L81853 43203
L81778 43221
L81684 43221
L81609 43203
L81571 43184
L81553 43165
L81534 43128
" />
<path d="M81928 42828
L81534 42828
" />
<path d="M81928 42603
L81703 42771
" />
<path d="M81534 42603
L81759 42828
" />
<path d="M84034 41928
L83903 41740
" />
<path d="M83809 41928
L83809 41534
L83959 41534
L83996 41553
L84015 41571
L84034 41609
L84034 41665
L84015 41703
L83996 41721
L83959 41740
L83809 41740
" />
<path d="M84371 41665
L84371 41928
" />
<path d="M84278 41515
L84184 41796
L84428 41796
" />
<path d="M83428 43371
L83428 43596
" />
<path d="M83428 43484
L83034 43484
L83090 43521
L83128 43559
L83146 43596
" />
<path d="M83034 43128
L83034 43090
L83053 43053
L83071 43034
L83109 43015
L83184 42996
L83278 42996
L83353 43015
L83390 43034
L83409 43053
L83428 43090
L83428 43128
L83409 43165
L83390 43184
L83353 43203
L83278 43221
L83184 43221
L83109 43203
L83071 43184
L83053 43165
L83034 43128
" />
<path d="M83428 42828
L83034 42828
" />
<path d="M83428 42603
L83203 42771
" />
<path d="M83034 42603
L83259 42828
" />
<path d="M69934 29578
L69803 29390
" />
<path d="M69709 29578
L69709 29184
L69859 29184
L69896 29203
L69915 29221
L69934 29259
L69934 29315
L69915 29353
L69896 29371
L69859 29390
L69709 29390
" />
<path d="M70271 29184
L70196 29184
L70159 29203
L70140 29221
L70103 29278
L70084 29353
L70084 29503
L70103 29540
L70121 29559
L70159 29578
L70234 29578
L70271 29559
L70290 29540
L70309 29503
L70309 29409
L70290 29371
L70271 29353
L70234 29334
L70159 29334
L70121 29353
L70103 29371
L70084 29409
" />
<path d="M70465 31099
L70728 31099
" />
<path d="M70315 31193
L70596 31287
L70596 31043
" />
<path d="M70334 30931
L70334 30668
L70728 30837
" />
<path d="M70334 30443
L70334 30406
L70353 30368
L70371 30350
L70409 30331
L70484 30312
L70578 30312
L70653 30331
L70690 30350
L70709 30368
L70728 30406
L70728 30443
L70709 30481
L70690 30500
L70653 30518
L70578 30537
L70484 30537
L70409 30518
L70371 30500
L70353 30481
L70334 30443
" />
<path d="M71284 29628
L71153 29440
" />
<path d="M71059 29628
L71059 29234
L71209 29234
L71246 29253
L71265 29271
L71284 29309
L71284 29365
L71265 29403
L71246 29421
L71209 29440
L71059 29440
" />
<path d="M71415 29234
L71678 29234
L71509 29628
" />
<path d="M71815 31049
L72078 31049
" />
<path d="M71665 31143
L71946 31237
L71946 30993
" />
<path d="M71684 30881
L71684 30618
L72078 30787
" />
<path d="M71684 30393
L71684 30356
L71703 30318
L71721 30300
L71759 30281
L71834 30262
L71928 30262
L72003 30281
L72040 30300
L72059 30318
L72078 30356
L72078 30393
L72059 30431
L72040 30450
L72003 30468
L71928 30487
L71834 30487
L71759 30468
L71721 30450
L71703 30431
L71684 30393
" />
<path d="M72684 29628
L72553 29440
" />
<path d="M72459 29628
L72459 29234
L72609 29234
L72646 29253
L72665 29271
L72684 29309
L72684 29365
L72665 29403
L72646 29421
L72609 29440
L72459 29440
" />
<path d="M72909 29403
L72871 29384
L72853 29365
L72834 29328
L72834 29309
L72853 29271
L72871 29253
L72909 29234
L72984 29234
L73021 29253
L73040 29271
L73059 29309
L73059 29328
L73040 29365
L73021 29384
L72984 29403
L72909 29403
L72871 29421
L72853 29440
L72834 29478
L72834 29553
L72853 29590
L72871 29609
L72909 29628
L72984 29628
L73021 29609
L73040 29590
L73059 29553
L73059 29478
L73040 29440
L73021 29421
L72984 29403
" />
<path d="M73215 31099
L73478 31099
" />
<path d="M73065 31193
L73346 31287
L73346 31043
" />
<path d="M73084 30931
L73084 30668
L73478 30837
" />
<path d="M73084 30443
L73084 30406
L73103 30368
L73121 30350
L73159 30331
L73234 30312
L73328 30312
L73403 30331
L73440 30350
L73459 30368
L73478 30406
L73478 30443
L73459 30481
L73440 30500
L73403 30518
L73328 30537
L73234 30537
L73159 30518
L73121 30500
L73103 30481
L73084 30443
" />
<path d="M59284 43299
L59603 43299
L59640 43281
L59659 43262
L59678 43224
L59678 43149
L59659 43112
L59640 43093
L59603 43074
L59284 43074
" />
<path d="M59678 42681
L59678 42906
" />
<path d="M59678 42793
L59284 42793
L59340 42831
L59378 42868
L59396 42906
" />
<path d="M63426 47177
L63426 46877
" />
<path d="M63576 47027
L63276 47027
" />
<path d="M63426 44290
L63426 43990
" />
<path d="M63700 44534
L63700 44853
L63718 44890
L63737 44909
L63775 44928
L63850 44928
L63887 44909
L63906 44890
L63925 44853
L63925 44534
" />
<path d="M64093 44571
L64112 44553
L64149 44534
L64243 44534
L64281 44553
L64299 44571
L64318 44609
L64318 44646
L64299 44703
L64074 44928
L64318 44928
" />
<path d="M62659 41496
L62659 41102
" />
<path d="M62846 41496
L62846 41102
L63071 41496
L63071 41102
" />
<path d="M63202 41102
L63427 41102
" />
<path d="M63315 41496
L63315 41102
" />
<path d="M63558 41290
L63690 41290
" />
<path d="M63746 41496
L63558 41496
L63558 41102
L63746 41102
" />
<path d="M64140 41496
L64008 41308
" />
<path d="M63915 41496
L63915 41102
L64065 41102
L64102 41121
L64121 41140
L64140 41177
L64140 41233
L64121 41271
L64102 41290
L64065 41308
L63915 41308
" />
<path d="M64533 41496
L64402 41308
" />
<path d="M64308 41496
L64308 41102
L64458 41102
L64496 41121
L64515 41140
L64533 41177
L64533 41233
L64515 41271
L64496 41290
L64458 41308
L64308 41308
" />
<path d="M64927 41496
L64796 41308
" />
<path d="M64702 41496
L64702 41102
L64852 41102
L64889 41121
L64908 41140
L64927 41177
L64927 41233
L64908 41271
L64889 41290
L64852 41308
L64702 41308
" />
<path d="M65096 41102
L65096 41421
L65114 41458
L65133 41477
L65171 41496
L65246 41496
L65283 41477
L65302 41458
L65321 41421
L65321 41102
" />
<path d="M65508 41496
L65508 41102
L65658 41102
L65696 41121
L65714 41140
L65733 41177
L65733 41233
L65714 41271
L65696 41290
L65658 41308
L65508 41308
" />
<path d="M65846 41102
L66071 41102
" />
<path d="M65958 41496
L65958 41102
" />
<path d="M66277 41102
L66352 41102
L66389 41121
L66427 41158
L66446 41233
L66446 41365
L66427 41440
L66389 41477
L66352 41496
L66277 41496
L66239 41477
L66202 41440
L66183 41365
L66183 41233
L66202 41158
L66239 41121
L66277 41102
" />
<path d="M66839 41496
L66708 41308
" />
<path d="M66614 41496
L66614 41102
L66764 41102
L66802 41121
L66820 41140
L66839 41177
L66839 41233
L66820 41271
L66802 41290
L66764 41308
L66614 41308
" />
<path d="M63700 33034
L63700 33353
L63718 33390
L63737 33409
L63775 33428
L63850 33428
L63887 33409
L63906 33390
L63925 33353
L63925 33034
" />
<path d="M64074 33034
L64318 33034
L64187 33184
L64243 33184
L64281 33203
L64299 33221
L64318 33259
L64318 33353
L64299 33390
L64281 33409
L64243 33428
L64131 33428
L64093 33409
L64074 33390
" />
<path d="M64756 29928
L64568 29928
L64568 29534
" />
<path d="M64887 29721
L65018 29721
" />
<path d="M65075 29928
L64887 29928
L64887 29534
L65075 29534
" />
<path d="M65243 29928
L65243 29534
L65337 29534
L65393 29553
L65431 29590
L65450 29628
L65468 29703
L65468 29759
L65450 29834
L65431 29871
L65393 29909
L65337 29928
L65243 29928
" />
<path d="M66162 29928
L66031 29740
" />
<path d="M65937 29928
L65937 29534
L66087 29534
L66124 29553
L66143 29571
L66162 29609
L66162 29665
L66143 29703
L66124 29721
L66087 29740
L65937 29740
" />
<path d="M66537 29553
L66499 29534
L66443 29534
L66387 29553
L66349 29590
L66331 29628
L66312 29703
L66312 29759
L66331 29834
L66349 29871
L66387 29909
L66443 29928
L66481 29928
L66537 29909
L66556 29890
L66556 29759
L66481 29759
" />
<path d="M66856 29721
L66912 29740
L66931 29759
L66949 29796
L66949 29853
L66931 29890
L66912 29909
L66874 29928
L66724 29928
L66724 29534
L66856 29534
L66893 29553
L66912 29571
L66931 29609
L66931 29646
L66912 29684
L66893 29703
L66856 29721
L66724 29721
" />
<path d="M59500 28584
L59500 28903
L59518 28940
L59537 28959
L59575 28978
L59650 28978
L59687 28959
L59706 28940
L59725 28903
L59725 28584
" />
<path d="M60099 28584
L59912 28584
L59893 28771
L59912 28753
L59949 28734
L60043 28734
L60081 28753
L60099 28771
L60118 28809
L60118 28903
L60099 28940
L60081 28959
L60043 28978
L59949 28978
L59912 28959
L59893 28940
" />
<path d="M60487 26378
L60487 25984
L60637 25984
L60675 26003
L60693 26021
L60712 26059
L60712 26115
L60693 26153
L60675 26171
L60637 26190
L60487 26190
" />
<path d="M60862 26265
L61050 26265
" />
<path d="M60825 26378
L60956 25984
L61087 26378
" />
<path d="M61218 26378
L61218 25984
L61443 26378
L61443 25984
" />
<path d="M61575 25984
L61800 25984
" />
<path d="M61687 26378
L61687 25984
" />
<path d="M61912 26265
L62100 26265
" />
<path d="M61875 26378
L62006 25984
L62137 26378
" />
<path d="M62456 26378
L62268 26378
L62268 25984
" />
<path d="M62774 26378
L62587 26378
L62587 25984
" />
<path d="M62887 26265
L63074 26265
" />
<path d="M62849 26378
L62981 25984
L63112 26378
" />
<path d="M63149 26415
L63449 26415
" />
<path d="M63543 26378
L63543 25984
" />
<path d="M63712 26021
L63731 26003
L63768 25984
L63862 25984
L63899 26003
L63918 26021
L63937 26059
L63937 26096
L63918 26153
L63693 26378
L63937 26378
" />
<path d="M64331 26340
L64312 26359
L64256 26378
L64218 26378
L64162 26359
L64124 26321
L64106 26284
L64087 26209
L64087 26153
L64106 26078
L64124 26040
L64162 26003
L64218 25984
L64256 25984
L64312 26003
L64331 26021
" />
<path d="M60200 38034
L60200 38353
L60218 38390
L60237 38409
L60275 38428
L60350 38428
L60387 38409
L60406 38390
L60425 38353
L60425 38034
" />
<path d="M60781 38034
L60706 38034
L60668 38053
L60649 38071
L60612 38128
L60593 38203
L60593 38353
L60612 38390
L60631 38409
L60668 38428
L60743 38428
L60781 38409
L60799 38390
L60818 38353
L60818 38259
L60799 38221
L60781 38203
L60743 38184
L60668 38184
L60631 38203
L60612 38221
L60593 38259
" />
<path d="M60359 35006
L60359 34612
L60490 34893
L60621 34612
L60621 35006
" />
<path d="M60884 34612
L60959 34612
L60996 34631
L61034 34668
L61053 34743
L61053 34875
L61034 34950
L60996 34987
L60959 35006
L60884 35006
L60846 34987
L60809 34950
L60790 34875
L60790 34743
L60809 34668
L60846 34631
L60884 34612
" />
<path d="M61165 34612
L61390 34612
" />
<path d="M61278 35006
L61278 34612
" />
<path d="M61596 34612
L61671 34612
L61709 34631
L61746 34668
L61765 34743
L61765 34875
L61746 34950
L61709 34987
L61671 35006
L61596 35006
L61559 34987
L61521 34950
L61503 34875
L61503 34743
L61521 34668
L61559 34631
L61596 34612
" />
<path d="M62159 35006
L62028 34818
" />
<path d="M61934 35006
L61934 34612
L62084 34612
L62121 34631
L62140 34650
L62159 34687
L62159 34743
L62140 34781
L62121 34800
L62084 34818
L61934 34818
" />
<path d="M78750 46284
L78750 46603
L78768 46640
L78787 46659
L78825 46678
L78900 46678
L78937 46659
L78956 46640
L78975 46603
L78975 46284
" />
<path d="M79124 46284
L79387 46284
L79218 46678
" />
<path d="M70800 38084
L70800 38403
L70818 38440
L70837 38459
L70875 38478
L70950 38478
L70987 38459
L71006 38440
L71025 38403
L71025 38084
" />
<path d="M71268 38253
L71231 38234
L71212 38215
L71193 38178
L71193 38159
L71212 38121
L71231 38103
L71268 38084
L71343 38084
L71381 38103
L71399 38121
L71418 38159
L71418 38178
L71399 38215
L71381 38234
L71343 38253
L71268 38253
L71231 38271
L71212 38290
L71193 38328
L71193 38403
L71212 38440
L71231 38459
L71268 38478
L71343 38478
L71381 38459
L71399 38440
L71418 38403
L71418 38328
L71399 38290
L71381 38271
L71343 38253
" />
<path d="M70528 35006
L70340 35006
L70340 34612
" />
<path d="M70659 34800
L70790 34800
" />
<path d="M70847 35006
L70659 35006
L70659 34612
L70847 34612
" />
<path d="M71015 35006
L71015 34612
L71109 34612
L71165 34631
L71203 34668
L71221 34706
L71240 34781
L71240 34837
L71221 34912
L71203 34950
L71165 34987
L71109 35006
L71015 35006
" />
<path d="M71653 34612
L71784 35006
L71915 34612
" />
<path d="M72046 34800
L72178 34800
" />
<path d="M72234 35006
L72046 35006
L72046 34612
L72234 34612
" />
<path d="M72628 35006
L72496 34818
" />
<path d="M72403 35006
L72403 34612
L72553 34612
L72590 34631
L72609 34650
L72628 34687
L72628 34743
L72609 34781
L72590 34800
L72553 34818
L72403 34818
" />
<path d="M72796 35006
L72796 34612
L72890 34612
L72946 34631
L72984 34668
L73002 34706
L73021 34781
L73021 34837
L73002 34912
L72984 34950
L72946 34987
L72890 35006
L72796 35006
" />
<path d="M73190 34800
L73321 34800
" />
<path d="M73377 35006
L73190 35006
L73190 34612
L73377 34612
" />
<path d="M83109 40249
L83428 40249
L83465 40231
L83484 40212
L83503 40174
L83503 40099
L83484 40062
L83465 40043
L83428 40024
L83109 40024
" />
<path d="M83503 39818
L83503 39743
L83484 39706
L83465 39687
L83409 39650
L83334 39631
L83184 39631
L83146 39650
L83128 39668
L83109 39706
L83109 39781
L83128 39818
L83146 39837
L83184 39856
L83278 39856
L83315 39837
L83334 39818
L83353 39781
L83353 39706
L83334 39668
L83315 39650
L83278 39631
" />
<path d="M85928 41302
L85534 41302
L85815 41171
L85534 41040
L85928 41040
" />
<path d="M85534 40777
L85534 40702
L85553 40665
L85590 40627
L85665 40609
L85796 40609
L85871 40627
L85909 40665
L85928 40702
L85928 40777
L85909 40815
L85871 40852
L85796 40871
L85665 40871
L85590 40852
L85553 40815
L85534 40777
" />
<path d="M85928 40440
L85534 40440
L85534 40346
L85553 40290
L85590 40252
L85628 40234
L85703 40215
L85759 40215
L85834 40234
L85871 40252
L85909 40290
L85928 40346
L85928 40440
" />
<path d="M85534 40046
L85853 40046
L85890 40027
L85909 40009
L85928 39971
L85928 39896
L85909 39859
L85890 39840
L85853 39821
L85534 39821
" />
<path d="M85928 39446
L85928 39634
L85534 39634
" />
<path d="M85534 39240
L85534 39165
L85553 39127
L85590 39090
L85665 39071
L85796 39071
L85871 39090
L85909 39127
L85928 39165
L85928 39240
L85909 39277
L85871 39315
L85796 39334
L85665 39334
L85590 39315
L85553 39277
L85534 39240
" />
<path d="M85965 38996
L85965 38696
" />
<path d="M85721 38471
L85721 38603
" />
<path d="M85928 38603
L85534 38603
L85534 38415
" />
<path d="M85928 38265
L85534 38265
L85815 38134
L85534 38003
L85928 38003
" />
<path d="M85965 37909
L85965 37609
" />
<path d="M85928 37515
L85534 37515
L85534 37365
L85553 37328
L85571 37309
L85609 37290
L85665 37290
L85703 37309
L85721 37328
L85740 37365
L85740 37515
" />
<path d="M85534 37178
L85534 36953
" />
<path d="M85928 37065
L85534 37065
" />
<path d="M85571 36840
L85553 36821
L85534 36784
L85534 36690
L85553 36653
L85571 36634
L85609 36615
L85646 36615
L85703 36634
L85928 36859
L85928 36615
" />
<path d="M85571 36465
L85553 36447
L85534 36409
L85534 36315
L85553 36278
L85571 36259
L85609 36240
L85646 36240
L85703 36259
L85928 36484
L85928 36240
" />
<path d="M85534 36109
L85534 35847
L85928 36015
" />
<path d="M85571 35715
L85553 35697
L85534 35659
L85534 35565
L85553 35528
L85571 35509
L85609 35490
L85646 35490
L85703 35509
L85928 35734
L85928 35490
" />
<path d="M85778 35322
L85778 35022
" />
<path d="M85928 34834
L85534 34834
L85815 34703
L85534 34572
L85928 34572
" />
<path d="M85665 34216
L85928 34216
" />
<path d="M85515 34309
L85796 34403
L85796 34159
" />
<path d="M65412 38034
L65412 38353
L65431 38390
L65450 38409
L65487 38428
L65562 38428
L65600 38409
L65618 38390
L65637 38353
L65637 38034
" />
<path d="M66031 38428
L65806 38428
" />
<path d="M65918 38428
L65918 38034
L65881 38090
L65843 38128
L65806 38146
" />
<path d="M66274 38034
L66312 38034
L66349 38053
L66368 38071
L66387 38109
L66406 38184
L66406 38278
L66387 38353
L66368 38390
L66349 38409
L66312 38428
L66274 38428
L66237 38409
L66218 38390
L66199 38353
L66181 38278
L66181 38184
L66199 38109
L66218 38071
L66237 38053
L66274 38034
" />
<path d="M65237 35006
L65050 35006
L65050 34612
" />
<path d="M65368 34800
L65500 34800
" />
<path d="M65556 35006
L65368 35006
L65368 34612
L65556 34612
" />
<path d="M65725 35006
L65725 34612
L65818 34612
L65875 34631
L65912 34668
L65931 34706
L65950 34781
L65950 34837
L65931 34912
L65912 34950
L65875 34987
L65818 35006
L65725 35006
" />
<path d="M66643 35006
L66512 34818
" />
<path d="M66418 35006
L66418 34612
L66568 34612
L66606 34631
L66624 34650
L66643 34687
L66643 34743
L66624 34781
L66606 34800
L66568 34818
L66418 34818
" />
<path d="M66887 34612
L66962 34612
L66999 34631
L67037 34668
L67056 34743
L67056 34875
L67037 34950
L66999 34987
L66962 35006
L66887 35006
L66849 34987
L66812 34950
L66793 34875
L66793 34743
L66812 34668
L66849 34631
L66887 34612
" />
<path d="M67337 34612
L67337 34893
L67318 34950
L67281 34987
L67224 35006
L67187 35006
" />
<path d="M67599 34612
L67674 34612
L67712 34631
L67749 34668
L67768 34743
L67768 34875
L67749 34950
L67712 34987
L67674 35006
L67599 35006
L67562 34987
L67524 34950
L67506 34875
L67506 34743
L67524 34668
L67562 34631
L67599 34612
" />
<path d="M60262 33034
L60262 33353
L60281 33390
L60300 33409
L60337 33428
L60412 33428
L60450 33409
L60468 33390
L60487 33353
L60487 33034
" />
<path d="M60881 33428
L60656 33428
" />
<path d="M60768 33428
L60768 33034
L60731 33090
L60693 33128
L60656 33146
" />
<path d="M61256 33428
L61031 33428
" />
<path d="M61143 33428
L61143 33034
L61106 33090
L61068 33128
L61031 33146
" />
<path d="M60228 29937
L60284 29956
L60378 29956
L60415 29937
L60434 29918
L60453 29881
L60453 29843
L60434 29806
L60415 29787
L60378 29768
L60303 29750
L60265 29731
L60247 29712
L60228 29675
L60228 29637
L60247 29600
L60265 29581
L60303 29562
L60396 29562
L60453 29581
" />
<path d="M60696 29562
L60771 29562
L60809 29581
L60846 29618
L60865 29693
L60865 29825
L60846 29900
L60809 29937
L60771 29956
L60696 29956
L60659 29937
L60621 29900
L60603 29825
L60603 29693
L60621 29618
L60659 29581
L60696 29562
" />
<path d="M61034 29956
L61034 29562
L61259 29956
L61259 29562
" />
<path d="M61446 29956
L61446 29562
" />
<path d="M61634 29956
L61634 29562
L61728 29562
L61784 29581
L61821 29618
L61840 29656
L61859 29731
L61859 29787
L61840 29862
L61821 29900
L61784 29937
L61728 29956
L61634 29956
" />
<path d="M62103 29562
L62178 29562
L62215 29581
L62252 29618
L62271 29693
L62271 29825
L62252 29900
L62215 29937
L62178 29956
L62103 29956
L62065 29937
L62028 29900
L62009 29825
L62009 29693
L62028 29618
L62065 29581
L62103 29562
" />
<path d="M66512 27884
L66512 28203
L66531 28240
L66550 28259
L66587 28278
L66662 28278
L66700 28259
L66718 28240
L66737 28203
L66737 27884
" />
<path d="M67131 28278
L66906 28278
" />
<path d="M67018 28278
L67018 27884
L66981 27940
L66943 27978
L66906 27996
" />
<path d="M67281 27921
L67299 27903
L67337 27884
L67431 27884
L67468 27903
L67487 27921
L67506 27959
L67506 27996
L67487 28053
L67262 28278
L67506 28278
" />
<path d="M75762 38134
L75762 38453
L75781 38490
L75800 38509
L75837 38528
L75912 38528
L75950 38509
L75968 38490
L75987 38453
L75987 38134
" />
<path d="M76381 38528
L76156 38528
" />
<path d="M76268 38528
L76268 38134
L76231 38190
L76193 38228
L76156 38246
" />
<path d="M76512 38134
L76756 38134
L76624 38284
L76681 38284
L76718 38303
L76737 38321
L76756 38359
L76756 38453
L76737 38490
L76718 38509
L76681 38528
L76568 38528
L76531 38509
L76512 38490
" />
<path d="M75484 35006
L75484 34612
L75634 34612
L75672 34631
L75690 34650
L75709 34687
L75709 34743
L75690 34781
L75672 34800
L75634 34818
L75484 34818
" />
<path d="M75878 34968
L75896 34987
L75878 35006
L75859 34987
L75878 34968
L75878 35006
" />
<path d="M76309 34612
L76440 35006
L76571 34612
" />
<path d="M76703 34800
L76834 34800
" />
<path d="M76890 35006
L76703 35006
L76703 34612
L76890 34612
" />
<path d="M77284 35006
L77153 34818
" />
<path d="M77059 35006
L77059 34612
L77209 34612
L77246 34631
L77265 34650
L77284 34687
L77284 34743
L77265 34781
L77246 34800
L77209 34818
L77059 34818
" />
<path d="M77453 35006
L77453 34612
L77546 34612
L77603 34631
L77640 34668
L77659 34706
L77678 34781
L77678 34837
L77659 34912
L77640 34950
L77603 34987
L77546 35006
L77453 35006
" />
<path d="M77846 34800
L77977 34800
" />
<path d="M78034 35006
L77846 35006
L77846 34612
L78034 34612
" />
<path d="M74712 33334
L74712 33653
L74731 33690
L74750 33709
L74787 33728
L74862 33728
L74900 33709
L74918 33690
L74937 33653
L74937 33334
" />
<path d="M75331 33728
L75106 33728
" />
<path d="M75218 33728
L75218 33334
L75181 33390
L75143 33428
L75106 33446
" />
<path d="M75687 33334
L75499 33334
L75481 33521
L75499 33503
L75537 33484
L75631 33484
L75668 33503
L75687 33521
L75706 33559
L75706 33653
L75687 33690
L75668 33709
L75631 33728
L75537 33728
L75499 33709
L75481 33690
" />
<path d="M77531 29584
L77756 29584
" />
<path d="M77643 29978
L77643 29584
" />
<path d="M77887 29771
L78018 29771
" />
<path d="M78075 29978
L77887 29978
L77887 29584
L78075 29584
" />
<path d="M78468 29940
L78450 29959
L78393 29978
L78356 29978
L78300 29959
L78262 29921
L78243 29884
L78225 29809
L78225 29753
L78243 29678
L78262 29640
L78300 29603
L78356 29584
L78393 29584
L78450 29603
L78468 29621
" />
<path d="M78824 29978
L78637 29978
L78637 29584
" />
<path d="M78937 29865
L79124 29865
" />
<path d="M78899 29978
L79031 29584
L79162 29978
" />
<path d="M79293 29978
L79293 29584
L79387 29584
L79443 29603
L79481 29640
L79499 29678
L79518 29753
L79518 29809
L79499 29884
L79481 29921
L79443 29959
L79387 29978
L79293 29978
" />
<path d="M79762 29584
L79837 29584
L79874 29603
L79912 29640
L79931 29715
L79931 29846
L79912 29921
L79874 29959
L79837 29978
L79762 29978
L79724 29959
L79687 29921
L79668 29846
L79668 29715
L79687 29640
L79724 29603
L79762 29584
" />
<path d="M80012 38284
L80012 38603
L80031 38640
L80050 38659
L80087 38678
L80162 38678
L80200 38659
L80218 38640
L80237 38603
L80237 38284
" />
<path d="M80631 38678
L80406 38678
" />
<path d="M80518 38678
L80518 38284
L80481 38340
L80443 38378
L80406 38396
" />
<path d="M80856 38453
L80818 38434
L80799 38415
L80781 38378
L80781 38359
L80799 38321
L80818 38303
L80856 38284
L80931 38284
L80968 38303
L80987 38321
L81006 38359
L81006 38378
L80987 38415
L80968 38434
L80931 38453
L80856 38453
L80818 38471
L80799 38490
L80781 38528
L80781 38603
L80799 38640
L80818 38659
L80856 38678
L80931 38678
L80968 38659
L80987 38640
L81006 38603
L81006 38528
L80987 38490
L80968 38471
L80931 38453
" />
<path d="M79893 35156
L79893 34762
L80043 34762
L80081 34781
L80100 34800
L80118 34837
L80118 34893
L80100 34931
L80081 34950
L80043 34968
L79893 34968
" />
<path d="M80287 35118
L80306 35137
L80287 35156
L80268 35137
L80287 35118
L80287 35156
" />
<path d="M81000 35156
L80868 34968
" />
<path d="M80775 35156
L80775 34762
L80925 34762
L80962 34781
L80981 34800
L81000 34837
L81000 34893
L80981 34931
L80962 34950
L80925 34968
L80775 34968
" />
<path d="M81243 34762
L81318 34762
L81356 34781
L81393 34818
L81412 34893
L81412 35025
L81393 35100
L81356 35137
L81318 35156
L81243 35156
L81206 35137
L81168 35100
L81149 35025
L81149 34893
L81168 34818
L81206 34781
L81243 34762
" />
<path d="M81693 34762
L81693 35043
L81674 35100
L81637 35137
L81581 35156
L81543 35156
" />
<path d="M81956 34762
L82031 34762
L82068 34781
L82106 34818
L82124 34893
L82124 35025
L82106 35100
L82068 35137
L82031 35156
L81956 35156
L81918 35137
L81881 35100
L81862 35025
L81862 34893
L81881 34818
L81918 34781
L81956 34762
" />
<path d="M83109 33137
L83428 33137
L83465 33118
L83484 33099
L83503 33062
L83503 32987
L83484 32949
L83465 32931
L83428 32912
L83109 32912
" />
<path d="M83503 32518
L83503 32743
" />
<path d="M83503 32631
L83109 32631
L83165 32668
L83203 32706
L83221 32743
" />
<path d="M83503 32331
L83503 32256
L83484 32218
L83465 32200
L83409 32162
L83334 32143
L83184 32143
L83146 32162
L83128 32181
L83109 32218
L83109 32293
L83128 32331
L83146 32350
L83184 32368
L83278 32368
L83315 32350
L83334 32331
L83353 32293
L83353 32218
L83334 32181
L83315 32162
L83278 32143
" />
<path d="M85721 33105
L85740 33049
L85759 33030
L85796 33012
L85853 33012
L85890 33030
L85909 33049
L85928 33087
L85928 33237
L85534 33237
L85534 33105
L85553 33068
L85571 33049
L85609 33030
L85646 33030
L85684 33049
L85703 33068
L85721 33105
L85721 33237
" />
<path d="M85928 32655
L85928 32843
L85534 32843
" />
<path d="M85534 32524
L85853 32524
L85890 32505
L85909 32487
L85928 32449
L85928 32374
L85909 32337
L85890 32318
L85853 32299
L85534 32299
" />
<path d="M85721 32112
L85721 31981
" />
<path d="M85928 31924
L85928 32112
L85534 32112
L85534 31924
" />
<path d="M85534 31812
L85534 31587
" />
<path d="M85928 31699
L85534 31699
" />
<path d="M85534 31381
L85534 31306
L85553 31268
L85590 31231
L85665 31212
L85796 31212
L85871 31231
L85909 31268
L85928 31306
L85928 31381
L85909 31418
L85871 31456
L85796 31474
L85665 31474
L85590 31456
L85553 31418
L85534 31381
" />
<path d="M85534 30968
L85534 30893
L85553 30856
L85590 30818
L85665 30799
L85796 30799
L85871 30818
L85909 30856
L85928 30893
L85928 30968
L85909 31006
L85871 31043
L85796 31062
L85665 31062
L85590 31043
L85553 31006
L85534 30968
" />
<path d="M85534 30687
L85534 30462
" />
<path d="M85928 30574
L85534 30574
" />
<path d="M85928 30331
L85534 30331
" />
<path d="M85721 30331
L85721 30106
" />
<path d="M85928 30106
L85534 30106
" />
<path d="M85965 30012
L85965 29712
" />
<path d="M85928 29618
L85534 29618
" />
<path d="M85721 29618
L85721 29393
" />
<path d="M85928 29393
L85534 29393
" />
<path d="M85890 28981
L85909 29000
L85928 29056
L85928 29093
L85909 29150
L85871 29187
L85834 29206
L85759 29225
L85703 29225
L85628 29206
L85590 29187
L85553 29150
L85534 29093
L85534 29056
L85553 29000
L85571 28981
" />
<path d="M85778 28812
L85778 28512
" />
<path d="M85534 28250
L85534 28212
L85553 28175
L85571 28156
L85609 28137
L85684 28119
L85778 28119
L85853 28137
L85890 28156
L85909 28175
L85928 28212
L85928 28250
L85909 28287
L85890 28306
L85853 28325
L85778 28344
L85684 28344
L85609 28325
L85571 28306
L85553 28287
L85534 28250
" />
<path d="M85534 27781
L85534 27856
L85553 27894
L85571 27912
L85628 27950
L85703 27969
L85853 27969
L85890 27950
L85909 27931
L85928 27894
L85928 27819
L85909 27781
L85890 27762
L85853 27744
L85759 27744
L85721 27762
L85703 27781
L85684 27819
L85684 27894
L85703 27931
L85721 27950
L85759 27969
" />
<path d="M72584 40228
L72453 40040
" />
<path d="M72359 40228
L72359 39834
L72509 39834
L72546 39853
L72565 39871
L72584 39909
L72584 39965
L72565 40003
L72546 40021
L72509 40040
L72359 40040
" />
<path d="M72771 40228
L72846 40228
L72884 40209
L72903 40190
L72940 40134
L72959 40059
L72959 39909
L72940 39871
L72921 39853
L72884 39834
L72809 39834
L72771 39853
L72753 39871
L72734 39909
L72734 40003
L72753 40040
L72771 40059
L72809 40078
L72884 40078
L72921 40059
L72940 40040
L72959 40003
" />
<path d="M71153 39378
L70928 39378
" />
<path d="M71040 39378
L71040 38984
L71003 39040
L70965 39078
L70928 39096
" />
<path d="M71321 39378
L71321 38984
" />
<path d="M71359 39228
L71471 39378
" />
<path d="M71471 39115
L71321 39265
" />
<path d="M75162 43884
L75162 44203
L75181 44240
L75200 44259
L75237 44278
L75312 44278
L75350 44259
L75368 44240
L75387 44203
L75387 43884
" />
<path d="M75781 44278
L75556 44278
" />
<path d="M75668 44278
L75668 43884
L75631 43940
L75593 43978
L75556 43996
" />
<path d="M75912 43884
L76174 43884
L76006 44278
" />
<path d="M74828 42799
L74828 42987
L74434 42987
" />
<path d="M74828 42668
L74434 42668
L74715 42537
L74434 42406
L74828 42406
" />
<path d="M74434 42256
L74434 41993
L74828 42162
" />
<path d="M74603 41787
L74584 41824
L74565 41843
L74528 41862
L74509 41862
L74471 41843
L74453 41824
L74434 41787
L74434 41712
L74453 41674
L74471 41656
L74509 41637
L74528 41637
L74565 41656
L74584 41674
L74603 41712
L74603 41787
L74621 41824
L74640 41843
L74678 41862
L74753 41862
L74790 41843
L74809 41824
L74828 41787
L74828 41712
L74809 41674
L74790 41656
L74753 41637
L74678 41637
L74640 41656
L74621 41674
L74603 41712
" />
<path d="M74434 41393
L74434 41356
L74453 41318
L74471 41300
L74509 41281
L74584 41262
L74678 41262
L74753 41281
L74790 41300
L74809 41318
L74828 41356
L74828 41393
L74809 41431
L74790 41450
L74753 41468
L74678 41487
L74584 41487
L74509 41468
L74471 41450
L74453 41431
L74434 41393
" />
<path d="M74434 40906
L74434 41093
L74621 41112
L74603 41093
L74584 41056
L74584 40962
L74603 40925
L74621 40906
L74659 40887
L74753 40887
L74790 40906
L74809 40925
L74828 40962
L74828 41056
L74809 41093
L74790 41112
" />
<path d="M74790 40493
L74809 40512
L74828 40568
L74828 40606
L74809 40662
L74771 40700
L74734 40718
L74659 40737
L74603 40737
L74528 40718
L74490 40700
L74453 40662
L74434 40606
L74434 40568
L74453 40512
L74471 40493
" />
<path d="M74434 40381
L74434 40156
" />
<path d="M74828 40268
L74434 40268
" />
<path d="M77512 27884
L77512 28203
L77531 28240
L77550 28259
L77587 28278
L77662 28278
L77700 28259
L77718 28240
L77737 28203
L77737 27884
" />
<path d="M78131 28278
L77906 28278
" />
<path d="M78018 28278
L78018 27884
L77981 27940
L77943 27978
L77906 27996
" />
<path d="M78468 27884
L78393 27884
L78356 27903
L78337 27921
L78299 27978
L78281 28053
L78281 28203
L78299 28240
L78318 28259
L78356 28278
L78431 28278
L78468 28259
L78487 28240
L78506 28203
L78506 28109
L78487 28071
L78468 28053
L78431 28034
L78356 28034
L78318 28053
L78299 28071
L78281 28109
" />
<path d="M67962 39565
L67925 39546
L67887 39509
L67831 39453
L67793 39434
L67756 39434
" />
<path d="M67775 39528
L67737 39509
L67700 39471
L67681 39396
L67681 39265
L67700 39190
L67737 39153
L67775 39134
L67850 39134
L67887 39153
L67925 39190
L67943 39265
L67943 39396
L67925 39471
L67887 39509
L67850 39528
L67775 39528
" />
<path d="M68318 39528
L68093 39528
" />
<path d="M68206 39528
L68206 39134
L68168 39190
L68131 39228
L68093 39246
" />
<path d="M65628 40465
L65234 40465
L65628 40240
L65234 40240
" />
<path d="M65628 40053
L65234 40053
L65234 39903
L65253 39865
L65271 39846
L65309 39828
L65365 39828
L65403 39846
L65421 39865
L65440 39903
L65440 40053
" />
<path d="M65628 39659
L65234 39659
L65628 39434
L65234 39434
" />
<path d="M72025 42778
L71893 42590
" />
<path d="M71800 42778
L71800 42384
L71950 42384
L71987 42403
L72006 42421
L72025 42459
L72025 42515
L72006 42553
L71987 42571
L71950 42590
L71800 42590
" />
<path d="M72193 42571
L72325 42571
" />
<path d="M72381 42778
L72193 42778
L72193 42384
L72381 42384
" />
<path d="M72681 42571
L72550 42571
" />
<path d="M72550 42778
L72550 42384
L72737 42384
" />
<path d="M72943 42384
L72943 42478
" />
<path d="M72849 42440
L72943 42478
L73037 42440
" />
<path d="M72887 42553
L72943 42478
L72999 42553
" />
<path d="M73243 42384
L73243 42478
" />
<path d="M73149 42440
L73243 42478
L73337 42440
" />
<path d="M73187 42553
L73243 42478
L73299 42553
" />
<path d="M73543 42384
L73543 42478
" />
<path d="M73449 42440
L73543 42478
L73637 42440
" />
<path d="M73487 42553
L73543 42478
L73599 42553
" />
</g> 
</svg>
